<?xml version="1.0" encoding="utf-8"?>
<!-- Generator: Adobe Illustrator 24.0.3, SVG Export Plug-In . SVG Version: 6.00 Build 0)  -->
<svg version="1.1" id="Layer_1" xmlns="http://www.w3.org/2000/svg" xmlns:xlink="http://www.w3.org/1999/xlink" x="0px" y="0px"
	 viewBox="0 0 384 384" style="enable-background:new 0 0 384 384;" xml:space="preserve">
<style type="text/css">
	.st0{fill:none;}
	.st1{fill:#E84E0F;}
	.st2{fill:#FFFFFE;}
	.st3{fill-rule:evenodd;clip-rule:evenodd;fill:#FFFFFE;}
</style>
<polygon class="st0" points="7.7,7.7 376.3,7.7 376.3,376.3 7.7,376.3 "/>
<path class="st1" d="M192,15.4c-48.8,0-92.9,19.8-124.9,51.7c-32,32-51.7,76.1-51.7,124.9s19.8,92.9,51.7,124.9
	c32,32,76.1,51.7,124.9,51.7s92.9-19.8,124.9-51.7c32-32,51.7-76.1,51.7-124.9s-19.8-92.9-51.7-124.9
	C284.9,35.1,240.8,15.4,192,15.4z"/>
<path class="st2" d="M192,0L192,0C139,0,91,21.5,56.2,56.2C21.5,91,0,139,0,192c0,53,21.5,101,56.2,135.8C91,362.5,139,384,192,384
	c53,0,101-21.5,135.8-56.2C362.5,293,384,245,384,192c0-53-21.5-101-56.2-135.8C293,21.5,245,0,192,0z M316.9,316.9
	c-32,32-76.1,51.7-124.9,51.7s-92.9-19.8-124.9-51.7c-32-32-51.7-76.1-51.7-124.9S35.1,99.1,67.1,67.1c32-32,76.1-51.7,124.9-51.7
	s92.9,19.8,124.9,51.7c32,32,51.7,76.1,51.7,124.9S348.9,284.9,316.9,316.9z"/>
<path class="st3" d="M124,106.3c8.5,0,15.4,6.9,15.4,15.4c0,8.5-6.9,15.4-15.4,15.4c-8.5,0-15.4-6.9-15.4-15.4
	C108.7,113.2,115.6,106.3,124,106.3z"/>
<path class="st3" d="M260,106.3c8.5,0,15.4,6.9,15.4,15.4c0,8.5-6.9,15.4-15.4,15.4c-8.5,0-15.4-6.9-15.4-15.4
	C244.6,113.2,251.5,106.3,260,106.3z"/>
<path class="st2" d="M263.8,277.7c0-19.1-7.7-36.4-20.2-48.9c-12.5-12.5-29.8-20.2-48.9-20.2c-19.1,0-36.4,7.7-48.9,20.2
	c-12.5,12.5-20.2,29.8-20.2,48.9h-15.4c0-23.3,9.5-44.4,24.7-59.7c15.3-15.3,36.4-24.7,59.7-24.7c23.3,0,44.4,9.5,59.7,24.7
	c15.3,15.3,24.7,36.4,24.7,59.7H263.8L263.8,277.7z"/>
</svg>
