<?xml version="1.0" encoding="utf-8"?>
<!-- Generator: Adobe Illustrator 24.0.3, SVG Export Plug-In . SVG Version: 6.00 Build 0)  -->
<svg version="1.1" id="Layer_1" xmlns="http://www.w3.org/2000/svg" xmlns:xlink="http://www.w3.org/1999/xlink" x="0px" y="0px"
	 viewBox="0 0 384 384" style="enable-background:new 0 0 384 384;" xml:space="preserve">
<style type="text/css">
	.st0{fill:none;}
	.st1{fill:#303F9F;}
	.st2{fill:#27A737;}
	.st3{fill:#FFFFFE;}
	.st4{fill-rule:evenodd;clip-rule:evenodd;fill:#FFFFFE;}
</style>
<rect x="7.7" y="7.7" class="st0" width="368.6" height="368.6"/>
<polygon class="st1" points="15.4,192 15.4,192 15.4,192 "/>
<path class="st2" d="M67.1,316.9c32,32,76.1,51.7,124.9,51.7s92.9-19.8,124.9-51.7c32-32,51.7-76.1,51.7-124.9
	s-19.8-92.9-51.7-124.9c-32-32-76.1-51.7-124.9-51.7S99.1,35.1,67.1,67.1c-32,32-51.7,76.1-51.7,124.9v0
	C15.4,240.8,35.1,284.9,67.1,316.9z"/>
<path class="st3" d="M192,0L192,0c-18.7,0-36.8,2.7-53.9,7.7h107.8C228.8,2.7,210.7,0,192,0z"/>
<path class="st3" d="M384,192L384,192C384,192,384,192,384,192C384,192,384,192,384,192z"/>
<path class="st3" d="M192,384c18.7,0,36.8-2.7,53.9-7.7H138.1C155.2,381.3,173.3,384,192,384z"/>
<path class="st3" d="M15.4,192C15.4,192,15.4,192,15.4,192l0-75.4C5.5,139.8,0,165.3,0,192c0,26.7,5.5,52.2,15.4,75.4L15.4,192
	C15.4,192,15.4,192,15.4,192z"/>
<path class="st3" d="M327.8,56.2c-22.5-22.5-50.5-39.4-81.9-48.6H138.1c-31.4,9.2-59.4,26.1-81.9,48.6C39,73.5,25.1,93.9,15.4,116.6
	V192c0-48.8,19.8-92.9,51.7-124.9c32-32,76.1-51.7,124.9-51.7s92.9,19.8,124.9,51.7c32,32,51.7,76.1,51.7,124.9
	s-19.8,92.9-51.7,124.9c-32,32-76.1,51.7-124.9,51.7s-92.9-19.8-124.9-51.7c-32-32-51.7-76.1-51.7-124.9v75.4
	c9.7,22.7,23.7,43.2,40.9,60.4c22.5,22.5,50.5,39.4,81.9,48.6h107.8c31.3-9.2,59.4-26.1,81.9-48.6C362.5,293,384,245,384,192v0
	C384,139,362.5,91,327.8,56.2z"/>
<circle class="st4" cx="138.3" cy="140.1" r="15.4"/>
<circle class="st4" cx="245.7" cy="140.1" r="15.4"/>
<path class="st3" d="M289.8,250.7c-10.1,17.5-24.5,31.6-41.3,41.3h0c-16.9,9.8-36.3,15.2-56.4,15.2s-39.5-5.4-56.4-15.2h0
	c-16.9-9.7-31.2-23.9-41.3-41.3l13.3-7.6c8.7,15.1,21.1,27.3,35.7,35.7l0,0c14.6,8.4,31.3,13,48.8,13s34.2-4.6,48.8-13l0,0
	c14.6-8.4,27-20.6,35.7-35.7L289.8,250.7L289.8,250.7z"/>
</svg>
