<?xml version="1.0" encoding="utf-8"?>
<!-- Generator: Adobe Illustrator 24.0.3, SVG Export Plug-In . SVG Version: 6.00 Build 0)  -->
<svg version="1.1" id="Layer_1" xmlns="http://www.w3.org/2000/svg" xmlns:xlink="http://www.w3.org/1999/xlink" x="0px" y="0px"
	 viewBox="0 0 384 384" style="enable-background:new 0 0 384 384;" xml:space="preserve">
<style type="text/css">
	.st0{fill:none;}
	.st1{fill:#1E88E5;}
	.st2{fill:#FFFFFE;}
</style>
<polygon class="st0" points="7.7,7.7 376.3,7.7 376.3,376.3 7.7,376.3 "/>
<path class="st1" d="M192,15.4c-48.8,0-92.9,19.8-124.9,51.7c-32,32-51.7,76.1-51.7,124.9s19.8,92.9,51.7,124.9
	c32,32,76.1,51.7,124.9,51.7s92.9-19.8,124.9-51.7c32-32,51.7-76.1,51.7-124.9s-19.8-92.9-51.7-124.9
	C284.9,35.1,240.8,15.4,192,15.4z"/>
<path class="st2" d="M192,0L192,0C139,0,91,21.5,56.2,56.2C21.5,91,0,139,0,192c0,53,21.5,101,56.2,135.8C91,362.5,139,384,192,384
	c53,0,101-21.5,135.8-56.2C362.5,293,384,245,384,192c0-53-21.5-101-56.2-135.8C293,21.5,245,0,192,0z M316.9,316.9
	c-32,32-76.1,51.7-124.9,51.7s-92.9-19.8-124.9-51.7c-32-32-51.7-76.1-51.7-124.9S35.1,99.1,67.1,67.1c32-32,76.1-51.7,124.9-51.7
	s92.9,19.8,124.9,51.7c32,32,51.7,76.1,51.7,124.9S348.9,284.9,316.9,316.9z"/>
<path class="st2" d="M158.2,123.3c0-3.4-1.4-6.4-3.6-8.7c-2.2-2.2-5.3-3.6-8.7-3.6c-2.2,0-4.2,0.6-5.9,1.5c-1.8,1-3.4,2.5-4.5,4.3
	l-6.5,10.6l-6.5-10.6c-1.1-1.8-2.7-3.3-4.5-4.3c-1.7-1-3.8-1.5-5.9-1.5c-3.4,0-6.4,1.4-8.7,3.6c-2.2,2.2-3.6,5.3-3.6,8.7
	c0,1.8,0.4,3.6,1.1,5c0.7,1.6,1.8,3,3.1,4.2l0.4,0.3l24.6,24.6l24.6-24.6l0.4-0.3c1.3-1.2,2.4-2.6,3.1-4.2
	C157.9,126.8,158.2,125.1,158.2,123.3L158.2,123.3z M165.5,103.7c5,5,8.1,11.9,8.1,19.5c0,4-0.9,7.9-2.5,11.4
	c-1.6,3.5-3.8,6.5-6.6,9l0,0l-28.2,28.2h0c-0.9,0.9-2.1,1.7-3.3,2.2c-1.3,0.5-2.6,0.8-3.9,0.8c-1.3,0-2.6-0.3-3.9-0.8
	c-1.2-0.5-2.4-1.3-3.3-2.2h0l-28.2-28.2l0,0c-2.8-2.5-5-5.6-6.6-9c-1.6-3.5-2.5-7.4-2.5-11.4c0-7.6,3.1-14.5,8.1-19.5
	c5-5,11.9-8.1,19.5-8.1c4.9,0,9.5,1.3,13.4,3.5c1.2,0.7,2.4,1.5,3.5,2.3c1.1-0.9,2.3-1.7,3.5-2.3c4-2.2,8.6-3.5,13.4-3.5
	C153.6,95.7,160.5,98.7,165.5,103.7L165.5,103.7z"/>
<path class="st2" d="M284.2,123.3c0-3.4-1.4-6.4-3.6-8.7c-2.2-2.2-5.3-3.6-8.7-3.6c-2.2,0-4.2,0.6-5.9,1.5c-1.8,1-3.4,2.5-4.5,4.3
	l-6.5,10.6l-6.5-10.6c-1.1-1.8-2.7-3.3-4.5-4.3c-1.7-1-3.8-1.5-5.9-1.5c-3.4,0-6.4,1.4-8.7,3.6c-2.2,2.2-3.6,5.3-3.6,8.7
	c0,1.8,0.4,3.6,1.1,5c0.7,1.6,1.8,3,3.1,4.2l0.4,0.3l24.6,24.6l24.6-24.6l0.4-0.3c1.3-1.2,2.4-2.6,3.1-4.2
	C283.8,126.8,284.2,125.1,284.2,123.3L284.2,123.3z M291.5,103.7c5,5,8.1,11.9,8.1,19.5c0,4-0.9,7.9-2.5,11.4
	c-1.6,3.5-3.8,6.5-6.6,9l0,0l-28.2,28.2h0c-0.9,0.9-2.1,1.7-3.3,2.2c-1.3,0.5-2.6,0.8-3.9,0.8c-1.3,0-2.6-0.3-3.9-0.8
	c-1.2-0.5-2.4-1.3-3.3-2.2h0l-28.2-28.2l0,0c-2.8-2.5-5-5.6-6.6-9c-1.6-3.5-2.5-7.4-2.5-11.4c0-7.6,3.1-14.5,8.1-19.5
	c5-5,11.9-8.1,19.5-8.1c4.9,0,9.5,1.3,13.4,3.5c1.2,0.7,2.4,1.5,3.5,2.3c1.1-0.9,2.3-1.7,3.5-2.3c4-2.2,8.6-3.5,13.4-3.5
	C279.6,95.7,286.5,98.7,291.5,103.7L291.5,103.7z"/>
<path class="st2" d="M289.8,250.7c-10.1,17.5-24.5,31.6-41.3,41.3h0c-16.9,9.8-36.3,15.2-56.4,15.2s-39.5-5.4-56.4-15.2h0
	c-16.9-9.7-31.2-23.9-41.3-41.3l13.3-7.6c8.7,15.1,21.1,27.3,35.7,35.7l0,0c14.6,8.4,31.3,13,48.8,13s34.2-4.6,48.8-13l0,0
	c14.6-8.4,27-20.6,35.7-35.7L289.8,250.7L289.8,250.7z"/>
</svg>
