<svg id="Layer_1" data-name="Layer 1"
  xmlns="http://www.w3.org/2000/svg" viewBox="0 0 237.05 128.33">
  <defs>
    <style>
      .cls-1 {
        fill: #000;
      }
    </style>
  </defs>
  <title>logo_meis</title>
  <g>
    <polygon class="cls-1" points="5.64 72.79 3.57 77.71 1.5 72.79 0.5 72.79 0.5 82.66 1.53 82.66 1.53 75.18 1.55 75.15 3.57 79.99 5.6 75.15 5.62 75.15 5.62 82.66 6.65 82.66 6.65 72.79 5.64 72.79"/>
    <path class="cls-1" d="M14.52,72.79v7.28a2.66,2.66,0,0,1-2.73,2.78c-1.06,0-2.74-.6-2.74-3.33V72.79h1v7.28A1.7,1.7,0,0,0,11.79,82c1.27,0,1.7-.93,1.7-2V72.79Z"/>
    <path class="cls-1" d="M22.17,74.57A3.4,3.4,0,0,0,20,73.47,1.51,1.51,0,0,0,18.44,75c0,.52.1,1,1.43,1.8l.78.48C22.46,78.36,23,78.88,23,80a2.67,2.67,0,0,1-2.9,2.82,3.68,3.68,0,0,1-3-1.6l.79-.63A2.65,2.65,0,0,0,20.05,82a1.83,1.83,0,0,0,1.87-1.83c0-.79-.05-1.06-1.79-2.1l-.89-.54c-1-.58-1.82-1.25-1.82-2.48a2.42,2.42,0,0,1,2.65-2.44,4.12,4.12,0,0,1,2.72,1.24Z"/>
    <polygon class="cls-1" points="31.16 73.66 27.07 73.66 27.07 77.16 30.01 77.16 30.01 78.03 27.07 78.03 27.07 81.8 31.26 81.8 31.26 82.66 26.04 82.66 26.04 72.79 31.16 72.79 31.16 73.66"/>
    <path class="cls-1" d="M38.47,77.73c0-.91.14-4.27-2-4.27s-2,3.69-2,4.27c0,1.12-.06,4.26,2,4.26,1,0,2-.69,2-4.26m-2-5.13c2.88,0,3,3.29,3,5.13,0,1.31.09,5.12-3,5.12s-3-3.73-3-5.12c0-4.13,1.37-5.13,3-5.13"/>
    <polygon class="cls-1" points="51.42 72.79 52.62 72.79 55.62 80.16 55.66 80.16 55.66 72.79 56.69 72.79 56.69 82.75 55.71 82.75 52.48 74.79 52.45 74.82 52.45 82.66 51.42 82.66 51.42 72.79"/>
    <path class="cls-1" d="M61,78.89h2.51l-1.26-4Zm4.74,3.77H64.58l-.87-2.91h-3l-.88,2.91H58.72L62.2,72Z"/>
    <polygon class="cls-1" points="73 72.79 73 73.52 68.94 81.8 73.33 81.8 73.33 82.66 67.71 82.66 67.71 81.92 71.82 73.66 67.86 73.66 67.86 72.79 73 72.79"/>
    <polygon class="cls-1" points="80.48 73.66 79.14 73.66 79.14 81.8 80.48 81.8 80.48 82.66 76.78 82.66 76.78 81.8 78.11 81.8 78.11 73.66 76.78 73.66 76.78 72.79 80.48 72.79 80.48 73.66"/>
    <path class="cls-1" d="M88.86,77.73c0-.91.14-4.27-2-4.27s-2,3.69-2,4.27c0,1.12-.06,4.26,2,4.26,1,0,2-.69,2-4.26m-2-5.13c2.88,0,3,3.29,3,5.13,0,1.31.09,5.12-3,5.12s-3-3.73-3-5.12c0-4.13,1.37-5.13,3-5.13"/>
    <polygon class="cls-1" points="92.55 72.79 93.74 72.79 96.74 80.16 96.78 80.16 96.78 72.79 97.81 72.79 97.81 82.75 96.84 82.75 93.61 74.79 93.58 74.82 93.58 82.66 92.55 82.66 92.55 72.79"/>
    <path class="cls-1" d="M102.08,78.89h2.51l-1.27-4Zm4.74,3.77h-1.11l-.88-2.91h-3L101,82.66H99.84L103.32,72Z"/>
    <polygon class="cls-1" points="110.58 81.8 114.85 81.8 114.85 82.66 109.55 82.66 109.55 72.79 110.58 72.79 110.58 81.8"/>
    <polygon class="cls-1" points="122.68 73.66 118.58 73.66 118.58 77.16 121.53 77.16 121.53 78.03 118.58 78.03 118.58 81.8 122.78 81.8 122.78 82.66 117.55 82.66 117.55 72.79 122.68 72.79 122.68 73.66"/>
    <path class="cls-1" d="M135.37,81.8h1.26c1.43,0,2.37-.4,2.37-4.07s-1.08-4.07-2.4-4.07h-1.23Zm-1-9h2.51c1.91,0,3.18,1.09,3.18,4.94s-1.18,4.93-3.33,4.93h-2.36Z"/>
    <polygon class="cls-1" points="147.35 73.66 143.25 73.66 143.25 77.16 146.2 77.16 146.2 78.03 143.25 78.03 143.25 81.8 147.45 81.8 147.45 82.66 142.23 82.66 142.23 72.79 147.35 72.79 147.35 73.66"/>
    <polygon class="cls-1" points="151.7 81.8 155.98 81.8 155.98 82.66 150.67 82.66 150.67 72.79 151.7 72.79 151.7 81.8"/>
    <polygon class="cls-1" points="159.93 81.8 164.2 81.8 164.2 82.66 158.9 82.66 158.9 72.79 159.93 72.79 159.93 81.8"/>
    <path class="cls-1" d="M168.18,75.05a1.67,1.67,0,0,0,.87-.43,1,1,0,0,1-.9-1,1,1,0,0,1,1.08-1.07,1.18,1.18,0,0,1,1.14,1.25c0,1.15-1.19,1.9-2.19,2.14Z"/>
    <polygon class="cls-1" points="180.97 73.66 176.87 73.66 176.87 77.16 179.82 77.16 179.82 78.03 176.87 78.03 176.87 81.8 181.06 81.8 181.06 82.66 175.84 82.66 175.84 72.79 180.97 72.79 180.97 73.66"/>
    <path class="cls-1" d="M186.26,81.8A1.7,1.7,0,0,0,188.07,80,2,2,0,0,0,185.82,78h-1.29V81.8Zm-1.73-4.7h1.19a1.87,1.87,0,0,0,1.92-1.85c0-1.64-1.37-1.59-2-1.59h-1.11Zm-1,5.56V72.79h2.07c1.14,0,3.1.14,3.1,2.5a2.36,2.36,0,0,1-1.3,2.12,2.72,2.72,0,0,1-1,5.25Z"/>
    <path class="cls-1" d="M193.92,77.7a2,2,0,0,0,2.22-2.17c0-1.31-.55-1.87-2.18-1.87h-1v4Zm-2-4.91h2.56a2.61,2.61,0,0,1,2.69,2.8,3,3,0,0,1-1.76,2.72l2.66,4.35h-1.24l-2.4-4.11c-.49,0-1,0-1.48,0v4.08h-1Z"/>
    <path class="cls-1" d="M202.52,78.89H205l-1.26-4Zm4.74,3.77h-1.11l-.87-2.91h-3l-.87,2.91h-1.11L203.77,72Z"/>
    <polygon class="cls-1" points="213 73.66 211.65 73.66 211.65 81.8 213 81.8 213 82.66 209.3 82.66 209.3 81.8 210.63 81.8 210.63 73.66 209.3 73.66 209.3 72.79 213 72.79 213 73.66"/>
    <path class="cls-1" d="M220,74.57a3.41,3.41,0,0,0-2.13-1.1,1.5,1.5,0,0,0-1.59,1.5c0,.52.09,1,1.42,1.8l.78.48c1.81,1.11,2.3,1.63,2.3,2.78a2.67,2.67,0,0,1-2.9,2.82,3.69,3.69,0,0,1-3-1.6l.8-.63A2.63,2.63,0,0,0,217.86,82a1.83,1.83,0,0,0,1.88-1.83c0-.79-.06-1.06-1.8-2.1l-.89-.54c-1-.58-1.82-1.25-1.82-2.48a2.43,2.43,0,0,1,2.66-2.44,4.12,4.12,0,0,1,2.71,1.24Z"/>
    <polygon class="cls-1" points="227.99 72.79 229 72.79 229 82.66 227.97 82.66 227.97 75.15 227.95 75.15 225.92 79.99 223.91 75.15 223.88 75.18 223.88 82.66 222.85 82.66 222.85 72.79 223.85 72.79 225.92 77.71 227.99 72.79"/>
    <path class="cls-1" d="M236,77.73c0-.91.14-4.27-2-4.27s-2,3.69-2,4.27c0,1.12-.06,4.26,2,4.26,1,0,2-.69,2-4.26m-2-5.13c2.88,0,3,3.29,3,5.13,0,1.31.1,5.12-3,5.12s-3-3.73-3-5.12c0-4.13,1.37-5.13,3-5.13"/>
    <polygon class="cls-1" points="0.5 89.46 0.5 90.33 1.83 90.33 1.83 98.47 0.5 98.47 0.5 99.33 4.2 99.33 4.2 98.47 2.86 98.47 2.86 90.33 4.2 90.33 4.2 89.46 0.5 89.46"/>
    <polygon class="cls-1" points="13.48 90.33 10.67 90.33 10.67 99.33 9.64 99.33 9.64 90.33 6.89 90.33 6.89 89.46 13.48 89.46 13.48 90.33"/>
    <path class="cls-1" d="M17.17,95.56h2.51l-1.26-4Zm4.74,3.77H20.8l-.88-2.91h-3l-.87,2.91H14.94l3.48-10.69Z"/>
    <polygon class="cls-1" points="25.67 98.47 29.94 98.47 29.94 99.33 24.64 99.33 24.64 89.46 25.67 89.46 25.67 98.47"/>
    <polygon class="cls-1" points="36.7 90.33 35.36 90.33 35.36 98.47 36.7 98.47 36.7 99.33 33 99.33 33 98.47 34.33 98.47 34.33 90.33 33 90.33 33 89.46 36.7 89.46 36.7 90.33"/>
    <path class="cls-1" d="M41.84,95.56h2.51l-1.26-4Zm4.74,3.77h-1.1l-.88-2.91h-3l-.88,2.91H39.61l3.48-10.69Z"/>
    <polygon class="cls-1" points="48.77 89.46 49.96 89.46 52.96 96.83 53 96.83 53 89.46 54.03 89.46 54.03 99.42 53.06 99.42 49.82 91.46 49.8 91.49 49.8 99.33 48.77 99.33 48.77 89.46"/>
    <path class="cls-1" d="M61.53,94.4c0-.91.14-4.27-2-4.27s-2,3.69-2,4.27c0,1.12-.06,4.26,2,4.26,1,0,2-.69,2-4.26m-2-5.13c2.87,0,3,3.29,3,5.13,0,1.31.09,5.12-3,5.12s-3-3.73-3-5.12c0-4.13,1.37-5.13,3-5.13"/>
    <polygon class="cls-1" points="79.74 90.33 75.64 90.33 75.64 93.83 78.59 93.83 78.59 94.7 75.64 94.7 75.64 98.47 79.83 98.47 79.83 99.33 74.61 99.33 74.61 89.46 79.74 89.46 79.74 90.33"/>
    <path class="cls-1" d="M92.24,98.47H93.5c1.42,0,2.37-.4,2.37-4.07s-1.09-4.07-2.4-4.07H92.24Zm-1-9h2.51c1.9,0,3.18,1.09,3.18,4.94s-1.18,4.93-3.33,4.93H91.21Z"/>
    <polygon class="cls-1" points="104.93 90.33 100.83 90.33 100.83 93.83 103.78 93.83 103.78 94.7 100.83 94.7 100.83 98.47 105.02 98.47 105.02 99.33 99.8 99.33 99.8 89.46 104.93 89.46 104.93 90.33"/>
    <polygon class="cls-1" points="109.28 98.47 113.55 98.47 113.55 99.33 108.25 99.33 108.25 89.46 109.28 89.46 109.28 98.47"/>
    <polygon class="cls-1" points="117.5 98.47 121.78 98.47 121.78 99.33 116.47 99.33 116.47 89.46 117.5 89.46 117.5 98.47"/>
    <path class="cls-1" d="M125.45,95.56H128l-1.26-4Zm4.74,3.77h-1.11l-.87-2.91h-3l-.87,2.91h-1.11l3.48-10.69Z"/>
    <path class="cls-1" d="M144.89,91.24a3.43,3.43,0,0,0-2.14-1.1,1.5,1.5,0,0,0-1.59,1.5c0,.52.09,1,1.42,1.8l.78.48c1.81,1.11,2.31,1.63,2.31,2.78a2.68,2.68,0,0,1-2.91,2.82,3.69,3.69,0,0,1-3-1.6l.8-.63a2.65,2.65,0,0,0,2.19,1.37,1.83,1.83,0,0,0,1.88-1.83c0-.79-.06-1.06-1.8-2.1l-.89-.54c-1-.58-1.82-1.25-1.82-2.48a2.43,2.43,0,0,1,2.66-2.44,4.1,4.1,0,0,1,2.71,1.24Z"/>
    <polygon class="cls-1" points="149.25 93.78 152.67 93.78 152.67 89.46 153.7 89.46 153.7 99.33 152.67 99.33 152.67 94.64 149.25 94.64 149.25 99.33 148.22 99.33 148.22 89.46 149.25 89.46 149.25 93.78"/>
    <path class="cls-1" d="M161.19,94.4c0-.91.13-4.27-2-4.27s-2,3.69-2,4.27c0,1.12-.05,4.26,2,4.26,1,0,2-.69,2-4.26m-2-5.13c2.87,0,3,3.29,3,5.13,0,1.31.1,5.12-3,5.12s-3-3.73-3-5.12c0-4.13,1.37-5.13,3-5.13"/>
    <path class="cls-1" d="M166.18,95.56h2.5l-1.26-4Zm4.74,3.77h-1.11l-.88-2.91h-3l-.88,2.91h-1.11l3.48-10.69Z"/>
    <polygon class="cls-1" points="173.92 93.78 177.35 93.78 177.35 89.46 178.37 89.46 178.37 99.33 177.35 99.33 177.35 94.64 173.92 94.64 173.92 99.33 172.89 99.33 172.89 89.46 173.92 89.46 173.92 93.78"/>
    <polygon class="cls-1" points="4.45 120.75 2.86 124.53 1.27 120.75 0.5 120.75 0.5 128.33 1.29 128.33 1.29 122.58 1.31 122.56 2.86 126.28 4.42 122.56 4.44 122.56 4.44 128.33 5.23 128.33 5.23 120.75 4.45 120.75"/>
    <path class="cls-1" d="M11.06,120.75v5.59A2,2,0,0,1,9,128.48c-.82,0-2.11-.46-2.11-2.56v-5.17h.79v5.59A1.31,1.31,0,0,0,9,127.82c1,0,1.3-.72,1.3-1.57v-5.5Z"/>
    <path class="cls-1" d="M16.73,122.12a2.63,2.63,0,0,0-1.65-.85,1.16,1.16,0,0,0-1.22,1.16c0,.4.08.75,1.1,1.38l.6.36c1.39.86,1.77,1.26,1.77,2.14a2.06,2.06,0,0,1-2.23,2.17,2.82,2.82,0,0,1-2.3-1.23l.61-.48a2.06,2.06,0,0,0,1.69,1,1.41,1.41,0,0,0,1.44-1.4c0-.61,0-.82-1.38-1.62l-.69-.41c-.74-.45-1.4-1-1.4-1.91a1.87,1.87,0,0,1,2-1.87,3.18,3.18,0,0,1,2.08.94Z"/>
    <polygon class="cls-1" points="19.49 120.75 19.49 128.33 23.5 128.33 23.5 127.67 20.28 127.67 20.28 124.78 22.54 124.78 22.54 124.11 20.28 124.11 20.28 121.42 23.42 121.42 23.42 120.75 19.49 120.75"/>
    <path class="cls-1" d="M29.39,120.75v5.59a2,2,0,0,1-2.1,2.14c-.82,0-2.11-.46-2.11-2.56v-5.17H26v5.59a1.31,1.31,0,0,0,1.32,1.48c1,0,1.31-.72,1.31-1.57v-5.5Z"/>
    <polygon class="cls-1" points="34.99 120.75 33.4 124.53 31.81 120.75 31.04 120.75 31.04 128.33 31.83 128.33 31.83 122.58 31.85 122.56 33.4 126.28 34.96 122.56 34.98 122.56 34.98 128.33 35.77 128.33 35.77 120.75 34.99 120.75"/>
    <path class="cls-1" d="M48,124.54c0-.69.11-3.27-1.54-3.27s-1.53,2.83-1.53,3.27c0,.87-.05,3.28,1.53,3.28.79,0,1.54-.53,1.54-3.28m-1.54-3.93c2.21,0,2.33,2.52,2.33,3.93,0,1,.07,3.94-2.33,3.94s-2.32-2.86-2.32-3.94c0-3.17,1-3.93,2.32-3.93"/>
    <polygon class="cls-1" points="50.96 120.75 50.96 128.33 51.75 128.33 51.75 124.71 54.21 124.71 54.21 124.05 51.75 124.05 51.75 121.42 55.03 121.42 55.03 120.75 50.96 120.75"/>
    <polygon class="cls-1" points="63.32 120.75 63.32 121.42 64.34 121.42 64.34 127.67 63.32 127.67 63.32 128.33 66.16 128.33 66.16 127.67 65.13 127.67 65.13 121.42 66.16 121.42 66.16 120.75 63.32 120.75"/>
    <polygon class="cls-1" points="68.32 120.75 68.32 121.42 70.44 121.42 70.44 128.33 71.22 128.33 71.22 121.42 73.38 121.42 73.38 120.75 68.32 120.75"/>
    <path class="cls-1" d="M77,122.37l1,3.07H76Zm-2.67,6h.85l.68-2.23h2.3l.68,2.23h.85L77,120.12Z"/>
    <polygon class="cls-1" points="81.53 120.75 81.53 128.33 85.61 128.33 85.61 127.67 82.32 127.67 82.32 120.75 81.53 120.75"/>
    <polygon class="cls-1" points="87.75 120.75 87.75 121.42 88.77 121.42 88.77 127.67 87.75 127.67 87.75 128.33 90.59 128.33 90.59 127.67 89.56 127.67 89.56 121.42 90.59 121.42 90.59 120.75 87.75 120.75"/>
    <path class="cls-1" d="M95.29,122.37l1,3.07H94.33Zm-2.68,6h.86l.67-2.23h2.31l.67,2.23H98l-2.68-8.21Z"/>
    <polygon class="cls-1" points="102.69 120.75 102.69 126.42 102.66 126.42 100.35 120.75 99.44 120.75 99.44 128.33 100.23 128.33 100.23 122.31 100.25 122.29 102.73 128.41 103.48 128.41 103.48 120.75 102.69 120.75"/>
    <path class="cls-1" d="M113.2,120.75h2.19v4.88c0,.93,0,2.85-2.15,2.85-1.23,0-2-.69-2-2.34v-1.06H112v1.36c0,.87.42,1.38,1.2,1.38s1.38-.52,1.38-1.6v-4.8h-1.4Z"/>
    <path class="cls-1" d="M121.8,120.75v5.59a2,2,0,0,1-2.09,2.14c-.82,0-2.11-.46-2.11-2.56v-5.17h.79v5.59a1.31,1.31,0,0,0,1.32,1.48c1,0,1.3-.72,1.3-1.57v-5.5Z"/>
    <path class="cls-1" d="M124.63,127.67h1c1.09,0,1.82-.31,1.82-3.13s-.83-3.12-1.85-3.12h-.94Zm-.79-6.92h1.93c1.46,0,2.44.83,2.44,3.79s-.91,3.79-2.56,3.79h-1.81Z"/>
    <path class="cls-1" d="M131.94,122.37l1,3.07H131Zm-2.68,6h.85l.68-2.23h2.3l.68,2.23h.85l-2.68-8.21Z"/>
    <polygon class="cls-1" points="136.61 120.75 136.61 121.42 137.63 121.42 137.63 127.67 136.61 127.67 136.61 128.33 139.46 128.33 139.46 127.67 138.42 127.67 138.42 121.42 139.46 121.42 139.46 120.75 136.61 120.75"/>
    <path class="cls-1" d="M145.79,122.12a2.6,2.6,0,0,0-1.64-.85,1.16,1.16,0,0,0-1.22,1.16c0,.4.07.75,1.09,1.38l.6.36c1.4.86,1.77,1.26,1.77,2.14a2.05,2.05,0,0,1-2.23,2.17,2.8,2.8,0,0,1-2.29-1.23l.61-.48a2.06,2.06,0,0,0,1.68,1,1.4,1.4,0,0,0,1.44-1.4c0-.61,0-.82-1.38-1.62l-.68-.41c-.75-.45-1.4-1-1.4-1.91a1.86,1.86,0,0,1,2-1.87,3.21,3.21,0,0,1,2.09.94Z"/>
    <polygon class="cls-1" points="151.84 120.75 150.25 124.53 148.66 120.75 147.89 120.75 147.89 128.33 148.68 128.33 148.68 122.58 148.7 122.56 150.25 126.28 151.81 122.56 151.83 122.56 151.83 128.33 152.62 128.33 152.62 120.75 151.84 120.75"/>
    <path class="cls-1" d="M162.77,122.37l1,3.07h-1.92Zm-2.68,6h.85l.68-2.23h2.3l.68,2.23h.85l-2.68-8.21Z"/>
    <polygon class="cls-1" points="170.17 120.75 170.17 126.42 170.14 126.42 167.83 120.75 166.91 120.75 166.91 128.33 167.71 128.33 167.71 122.31 167.72 122.29 170.21 128.41 170.96 128.41 170.96 120.75 170.17 120.75"/>
    <path class="cls-1" d="M173.78,127.67h1c1.09,0,1.82-.31,1.82-3.13s-.83-3.12-1.84-3.12h-.95Zm-.79-6.92h1.93c1.46,0,2.44.83,2.44,3.79s-.91,3.79-2.56,3.79H173Z"/>
    <polygon class="cls-1" points="183.76 120.75 183.76 121.42 185.88 121.42 185.88 128.33 186.66 128.33 186.66 121.42 188.82 121.42 188.82 120.75 183.76 120.75"/>
    <polygon class="cls-1" points="193.71 120.75 193.71 124.07 191.08 124.07 191.08 120.75 190.29 120.75 190.29 128.33 191.08 128.33 191.08 124.73 193.71 124.73 193.71 128.33 194.5 128.33 194.5 120.75 193.71 120.75"/>
    <polygon class="cls-1" points="196.81 120.75 196.81 128.33 200.82 128.33 200.82 127.67 197.59 127.67 197.59 124.78 199.86 124.78 199.86 124.11 197.59 124.11 197.59 121.42 200.75 121.42 200.75 120.75 196.81 120.75"/>
    <path class="cls-1" d="M212.17,122.12a2.63,2.63,0,0,0-1.65-.85,1.16,1.16,0,0,0-1.22,1.16c0,.4.08.75,1.1,1.38l.6.36c1.39.86,1.77,1.26,1.77,2.14a2.06,2.06,0,0,1-2.24,2.17,2.81,2.81,0,0,1-2.29-1.23l.61-.48a2.06,2.06,0,0,0,1.68,1,1.41,1.41,0,0,0,1.45-1.4c0-.61,0-.82-1.38-1.62l-.69-.41c-.74-.45-1.4-1-1.4-1.91a1.87,1.87,0,0,1,2.05-1.87,3.18,3.18,0,0,1,2.08.94Z"/>
    <polygon class="cls-1" points="217.94 120.75 217.94 124.07 215.3 124.07 215.3 120.75 214.51 120.75 214.51 128.33 215.3 128.33 215.3 124.73 217.94 124.73 217.94 128.33 218.73 128.33 218.73 120.75 217.94 120.75"/>
    <path class="cls-1" d="M224.27,124.54c0-.69.1-3.27-1.54-3.27s-1.54,2.83-1.54,3.27c0,.87,0,3.28,1.54,3.28.79,0,1.54-.53,1.54-3.28m-1.54-3.93c2.21,0,2.33,2.52,2.33,3.93,0,1,.07,3.94-2.33,3.94s-2.33-2.86-2.33-3.94c0-3.17,1.06-3.93,2.33-3.93"/>
    <path class="cls-1" d="M228.85,122.37l1,3.07h-1.93Zm-2.68,6H227l.67-2.23H230l.67,2.23h.85l-2.68-8.21Z"/>
    <polygon class="cls-1" points="236.26 120.75 236.26 124.07 233.63 124.07 233.63 120.75 232.84 120.75 232.84 128.33 233.63 128.33 233.63 124.73 236.26 124.73 236.26 128.33 237.05 128.33 237.05 120.75 236.26 120.75"/>
    <rect class="cls-1" x="0.25" y="107.82" width="24.94" height="3.97"/>
    <path class="cls-1" d="M134.91,17.06h-48V.12h48.05Zm-47-1h46.05V1.12h-46Z"/>
    <path class="cls-1" d="M134.91,37h-48V20.05h48.05Zm-47-1h46.05V21.05h-46Z"/>
    <path class="cls-1" d="M134.91,56.92h-48V40h48.05Zm-47-1h46.05V41h-46Z"/>
    <path class="cls-1" d="M83.83,56.93H57.88V0H83.83Zm-24.95-1H82.83V1H58.88Z"/>
    <path class="cls-1" d="M54.86,57H28.91V0h26ZM29.91,56h24V1H29.91Z"/>
    <path class="cls-1" d="M25.94,57H0V0H25.94ZM1,56H24.94V1H1Z"/>
    <path class="cls-1" d="M164,57H138V0H164ZM139,56H163V1H139Z"/>
    <path class="cls-1" d="M223.84,56.93H167V30.21h56.85Zm-55.85-1h54.85V31.21H168Z"/>
    <path class="cls-1" d="M237.44,27.08H180.6V.12h56.84Zm-55.84-1h54.84v-25H181.6Z"/>
  </g>
</svg>
