<?xml version="1.0" encoding="UTF-8" standalone="no"?>
<!-- Created with Inkscape (http://www.inkscape.org/) -->

<svg
   width="168.93823mm"
   height="151.02417mm"
   viewBox="0 0 168.93823 151.02417"
   version="1.1"
   id="svg5"
   xml:space="preserve"
   xmlns:inkscape="http://www.inkscape.org/namespaces/inkscape"
   xmlns:sodipodi="http://sodipodi.sourceforge.net/DTD/sodipodi-0.dtd"
   xmlns="http://www.w3.org/2000/svg"
   xmlns:svg="http://www.w3.org/2000/svg"><sodipodi:namedview
     id="namedview7"
     pagecolor="#ffffff"
     bordercolor="#000000"
     borderopacity="0.25"
     inkscape:showpageshadow="2"
     inkscape:pageopacity="0.0"
     inkscape:pagecheckerboard="0"
     inkscape:deskcolor="#d1d1d1"
     inkscape:document-units="mm"
     showgrid="false" /><defs
     id="defs2" /><g
     id="g280"
     transform="matrix(0.03527778,0,0,-0.03527778,-7.2069687e-6,151.02417)"><path
       d="m 4087.54,2359.94 c 935.08,-539.87 935.07,-1415.159 -0.01,-1955.042 -935.09,-539.859 -2451.15,-539.867 -3386.225,0 -935.078,539.872 -935.075,1415.172 0.008,1955.042 935.087,539.87 2451.147,539.87 3386.227,0"
       style="fill:#ededeb;fill-opacity:1;fill-rule:nonzero;stroke:none"
       id="path282" /><path
       d="M 1288.6,1170.23 841.77,1428.2 2547.82,2413.19 2994.65,2155.22 1288.6,1170.23"
       style="fill:#dadbd8;fill-opacity:1;fill-rule:nonzero;stroke:none"
       id="path290" /><path
       d="m 840.875,1427.69 -446.824,257.97 1706.059,985 446.82,-257.98 -1706.055,-984.99"
       style="fill:#dadbd8;fill-opacity:1;fill-rule:nonzero;stroke:none"
       id="path292" /><path
       d="M 2370.66,107.648 1240.67,760.051 c -29.09,16.789 -29.09,44.019 0,60.82 l 1673.51,966.199 c 29.09,16.8 76.26,16.8 105.35,0 l 1129.99,-652.39 c 29.09,-16.8 29.09,-44.02 0,-60.82 L 2476.01,107.648 c -29.09,-16.7886 -76.26,-16.7886 -105.35,0"
       style="fill:#dadbd8;fill-opacity:1;fill-rule:nonzero;stroke:none"
       id="path294" /><path
       d="m 800.805,1763.41 c -2.606,0.24 -4.836,2.19 -5.328,4.88 -51.45,280.06 -274.743,509.87 -409.422,561.67 -3.082,1.19 -4.625,4.66 -3.438,7.73 1.172,3.07 4.571,4.68 7.731,3.44 137.242,-52.79 364.664,-286.38 416.89,-570.68 0.598,-3.25 -1.554,-6.36 -4.797,-6.96 l -1.636,-0.08"
       style="fill:#ffffff;fill-opacity:1;fill-rule:nonzero;stroke:none"
       id="path310" /><path
       d="m 744.328,2825.66 1656.012,956.1 66.26,-38.26 c 17.14,-9.89 31.15,-34.17 31.15,-53.95 V 2467.94 c 0,-19.78 -14.01,-44.07 -31.15,-53.96 L 872.902,1493.86 c -17.132,-9.89 -45.172,-9.89 -62.304,0 l -35.114,20.27 c -17.129,9.89 -31.148,34.17 -31.148,53.96 l -0.008,1257.57"
       style="fill:#26b6a6;fill-opacity:1;fill-rule:nonzero;stroke:none"
       id="path316" /><path
       d="m 841.75,1486.44 v 0 c 10.145,0 20.289,2 28.461,5.99 -8.172,-3.99 -18.316,-5.99 -28.461,-5.99 m 48.68,17.54 v 0 l 297.35,171.7 v -0.03 L 890.43,1503.98 m -32.379,1256 -31.633,18.27 6.078,-3.5 25.567,-14.77 c -0.004,0 -0.004,0 -0.012,0 m 0.195,0.07 c 1.563,0.7 3.238,1.18 4.914,1.54 1.758,0.31 3.574,0.47 5.449,0.47 0.672,0 1.348,-0.02 2.032,-0.06 -0.602,0.03 -1.196,0.05 -1.786,0.05 -3.82,0 -7.394,-0.7 -10.609,-2 m 34.098,11.22 -8.235,3.02 -89.726,51.02 97.961,56.57 v -110.61 m -141.867,50.84 -6.149,3.55 6.149,-3.55 m 1604.403,741.37 v 162.84 l 45.96,26.53 59.22,-34.14 v 0 c -1.41,-0.89 -2.75,-1.88 -3.98,-2.98 -0.03,-0.02 -0.05,-0.04 -0.07,-0.06 -0.01,-0.01 -0.01,-0.01 -0.01,-0.01 -1.3,-1.16 -2.53,-2.48 -3.64,-4.03 v 0 l -97.48,-148.15"
       style="fill:#06ab91;fill-opacity:1;fill-rule:nonzero;stroke:none"
       id="path318" /><path
       d="m 2391.2,3889.15 6.77,3.69 -25.73,14.95 v -0.02 c -2.2,1.28 -4.49,2.4 -6.82,3.26 l -728.82,270.06 c -19.29,7.15 -44.35,-0.82 -55.97,-17.79 L 765.367,2972.72 c -11.621,-16.97 -21.039,-47.4 -21.039,-67.97 0,-34.03 0,-79.07 0,-79.07 l 25.27,-14.68 1630.742,970.76 v 79.08 c 0,9.63 -3.52,19.62 -9.14,28.31"
       style="fill:#26b6a6;fill-opacity:1;fill-rule:nonzero;stroke:none"
       id="path320" /><path
       d="m 775.359,2924.1 -25.222,14.59 c 1.859,6.21 4.097,12.29 6.578,18 l 0.25,0.5 c 1.117,2.48 2.234,4.84 3.476,7.2 l 0.622,1.12 c 1.367,2.61 2.855,5.09 4.343,7.2 l 126.938,185.38 v -51.48 L 790.609,2958.06 c -1.082,-1.61 -2.148,-3.33 -3.191,-5.15 -4.719,-8.17 -8.922,-18.37 -12.059,-28.81 m 421.121,678.14 384.14,561 c 0.88,1.33 1.83,2.46 2.84,3.6 0.42,0.46 0.84,0.92 1.27,1.37 -0.09,-0.09 -0.18,-0.18 -0.27,-0.28 0.08,0.09 0.17,0.19 0.25,0.28 0.1,0.09 0.2,0.19 0.29,0.29 -0.09,-0.1 -0.18,-0.19 -0.27,-0.29 0.27,0.27 0.53,0.54 0.8,0.8 0.51,0.49 1.02,0.97 1.54,1.44 0.66,0.59 1.33,1.16 2.01,1.72 l 25.17,-14.56 c -3.21,-2.61 -6.05,-5.62 -8.35,-8.98 l -351.07,-512.7 -58.35,-33.69 m 391.27,568.81 c 0.43,0.39 0.87,0.76 1.31,1.13 v 0 0 l 0.02,-0.01 c -0.45,-0.37 -0.9,-0.74 -1.33,-1.12"
       style="fill:#25b5a2;fill-opacity:1;fill-rule:nonzero;stroke:none"
       id="path322" /><path
       d="m 2370.49,3908.74 c -1.65,0.88 -3.35,1.65 -5.07,2.29 l -10.54,3.91 v 0.04 l 10.53,-3.9 c 1.74,-0.64 3.42,-1.42 5.08,-2.34 m -391.28,145.4 -342.61,126.95 c -3.73,1.39 -7.68,2.2 -11.71,2.5 4.02,-0.29 7.97,-1.09 11.72,-2.47 l 342.64,-126.96 -0.04,-0.02"
       style="fill:#ffffff;fill-opacity:1;fill-rule:nonzero;stroke:none"
       id="path324" /><path
       d="m 2395.65,3894.14 c -1.62,0.84 -3.28,1.59 -4.97,2.21 l -35.8,13.27 v 5.32 l 10.54,-3.91 c 1.72,-0.64 3.42,-1.41 5.07,-2.29 0.59,-0.32 1.17,-0.65 1.75,-1.01 l 23.41,-13.59 m -422.04,156.77 -311.8,115.56 c -4.76,1.77 -9.89,2.61 -15.07,2.61 -4.81,0 -9.67,-0.72 -14.34,-2.1 -6.63,-1.91 -12.9,-5.1 -18.15,-9.37 l -25.17,14.56 c 0.01,0 0.01,0.01 0.02,0.01 -0.01,0 -0.01,-0.01 -0.02,-0.01 l -0.02,0.01 c 9.03,7.31 20.92,11.52 32.53,11.52 1.1,0 2.21,-0.03 3.3,-0.11 4.03,-0.3 7.98,-1.11 11.71,-2.5 l 342.61,-126.95 -5.6,-3.23"
       style="fill:#52c5b8;fill-opacity:1;fill-rule:nonzero;stroke:none"
       id="path326" /><path
       d="m 761.016,2965.55 c 1.406,2.58 2.855,4.99 4.351,7.17 -1.496,-2.18 -2.945,-4.59 -4.351,-7.17"
       style="fill:#26b6a6;fill-opacity:1;fill-rule:nonzero;stroke:none"
       id="path328" /><path
       d="m 1584.73,4168.21 c 1.37,1.4 2.83,2.72 4.37,3.97 -1.54,-1.25 -3.02,-2.54 -4.37,-3.97"
       style="fill:#26b6a6;fill-opacity:1;fill-rule:nonzero;stroke:none"
       id="path330" /><path
       d="m 750.094,2938.66 c 1.871,6.24 4.121,12.38 6.625,18.06 -2.52,-5.69 -4.754,-11.82 -6.625,-18.06"
       style="fill:#26b6a6;fill-opacity:1;fill-rule:nonzero;stroke:none"
       id="path332" /><path
       d="m 756.93,2957.24 c 1.113,2.49 2.293,4.85 3.496,7.13 -1.207,-2.28 -2.383,-4.64 -3.496,-7.13"
       style="fill:#26b6a6;fill-opacity:1;fill-rule:nonzero;stroke:none"
       id="path334" /><path
       d="m 756.719,2956.72 0.211,0.52 -0.211,-0.52"
       style="fill:#14b099;fill-opacity:1;fill-rule:nonzero;stroke:none"
       id="path336" /><path
       d="m 750.094,2938.65 v 0.01 -0.01"
       style="fill:#14b099;fill-opacity:1;fill-rule:nonzero;stroke:none"
       id="path338" /><path
       d="m 760.426,2964.37 0.59,1.18 -0.59,-1.18"
       style="fill:#14b099;fill-opacity:1;fill-rule:nonzero;stroke:none"
       id="path340" /><path
       d="m 1580.63,4163.3 c 0.02,0.03 0.04,0.06 0.06,0.09 -0.02,-0.03 -0.04,-0.06 -0.06,-0.09 m 0.06,0.09 c 1.12,1.62 2.39,3.12 3.77,4.54 -0.34,-0.37 -0.68,-0.73 -1,-1.09 -0.99,-1.11 -1.93,-2.24 -2.77,-3.45"
       style="fill:#14b099;fill-opacity:1;fill-rule:nonzero;stroke:none"
       id="path342" /><path
       d="m 1583.46,4166.84 c 0.32,0.36 0.66,0.72 1,1.09 0.09,0.1 0.18,0.19 0.27,0.28 -0.43,-0.45 -0.85,-0.91 -1.27,-1.37"
       style="fill:#0eae96;fill-opacity:1;fill-rule:nonzero;stroke:none"
       id="path344" /><path
       d="M 1605.9,4148.63 790.637,2958.04 c -11.621,-16.97 -21.039,-47.4 -21.039,-67.97 0,-34.02 0,-79.07 0,-79.07 l 1656.032,956.16 -0.02,79.01 c 0,20.57 -15.64,43.03 -34.93,50.18 l -728.81,270.07 c -19.29,7.14 -44.35,-0.82 -55.97,-17.79"
       style="fill:#26b6a6;fill-opacity:1;fill-rule:nonzero;stroke:none"
       id="path346" /><path
       d="m 775.465,2924.04 -0.106,0.06 c 3.836,12.76 9.262,25.16 15.278,33.94 l 101.707,148.54 v -114.89 l -116.879,-67.65 m 479.365,711.89 351.07,512.7 c 8.73,12.74 25.04,20.41 40.79,20.41 5.22,0 10.38,-0.84 15.18,-2.62 l 311.74,-115.52 -718.78,-414.97 m 1170.8,131.25 -0.02,78.99 c 0,0.07 0,0.14 0,0.22 0,-0.08 0,-0.15 0,-0.22 l 0.02,-78.99 m -70.75,71.01 v 71.43 l 35.8,-13.27 c 19.22,-7.12 34.81,-29.45 34.93,-49.96 -0.06,9.38 -3.45,19.09 -8.85,27.61 l -61.88,-35.81"
       style="fill:#19b19d;fill-opacity:1;fill-rule:nonzero;stroke:none"
       id="path348" /><path
       d="m 769.625,2811.05 -0.027,0.02 c 0,0 0,0 0,0.01 l 0.031,-0.02 c 0,0 0,44.94 0,78.96 0,9.93 2.238,22.1 5.836,34.02 v 0 l 116.879,67.65 v -109.81 l -97.961,-56.57 -0.379,0.22 -24.379,-14.48"
       style="fill:#0fae96;fill-opacity:1;fill-rule:nonzero;stroke:none"
       id="path350" /><path
       d="m 2425.61,3846.39 v 0 0"
       style="fill:#e0e1de;fill-opacity:1;fill-rule:nonzero;stroke:none"
       id="path352" /><path
       d="m 2354.88,3726.32 v 111.87 l 61.88,35.81 c 5.4,-8.52 8.79,-18.23 8.85,-27.61 v 0 c 0,-0.08 0,-0.15 0,-0.22 l 0.02,-78.99 -24.84,-14.27 0.07,-0.04 -0.02,-0.02 v 0 l -45.96,-26.53"
       style="fill:#0fae96;fill-opacity:1;fill-rule:nonzero;stroke:none"
       id="path354" /><path
       d="m 2354.88,4181.75 c 0,8.5 -2.97,14.51 -7.77,17.34 -4.87,2.87 -45.68,26.37 -50.55,29.18 -4.86,2.8 -11.58,2.39 -19,-1.89 L 919.238,3442.19 c -14.847,-8.58 -26.883,-29.42 -26.879,-46.56 l 0.004,-1626.73 c 0,-8.57 3.004,-14.59 7.867,-17.4 4.864,-2.81 45.583,-26.31 50.446,-29.12 4.863,-2.81 11.582,-2.4 19.008,1.88 l 1358.326,784.2 c 14.84,8.57 26.88,29.42 26.88,46.56 l -0.01,1626.73"
       style="fill:#ededeb;fill-opacity:1;fill-rule:nonzero;stroke:none"
       id="path356" /><path
       d="m 969.684,1724.26 1358.326,784.2 c 14.84,8.57 26.88,29.42 26.88,46.56 l -0.01,1626.73 c 0,17.14 -12.04,24.09 -26.88,15.52 L 969.672,3413.07 c -14.848,-8.57 -26.879,-29.42 -26.879,-46.56 l 0.008,-1626.73 c 0,-17.14 12.035,-24.09 26.883,-15.52"
       style="fill:#fafaf9;fill-opacity:1;fill-rule:nonzero;stroke:none"
       id="path358" /><path
       d="m 942.75,1739.8 c 0,-7.58 2.359,-13.16 6.332,-16.39 -9.062,5.09 -44.324,25.58 -48.793,28.06 -4.965,2.85 -7.945,8.81 -7.945,17.38 v 1626.81 c 0,8.57 2.98,18.01 7.945,26.45 l 50.406,-29.05 c -4.968,-8.45 -7.945,-18.01 -7.945,-26.57 V 1739.8"
       style="fill:#dadbd8;fill-opacity:1;fill-rule:nonzero;stroke:none"
       id="path360" /><path
       d="m 2201.2,3948.54 -241.33,-139.33 c -11.96,-6.91 -21.65,-23 -21.65,-35.95 0.01,-12.96 9.71,-17.86 21.66,-10.96 l 241.33,139.34 c 11.95,6.91 21.65,23 21.65,35.95 -0.01,12.95 -9.7,17.86 -21.66,10.95"
       style="fill:#dadbd8;fill-opacity:1;fill-rule:nonzero;stroke:none"
       id="path362" /><path
       d="m 1107.12,3223.08 444.16,256.42 c 11.96,6.9 21.65,2 21.65,-10.95 0,-12.96 -9.7,-29.05 -21.65,-35.96 l -444.15,-256.42 c -11.95,-6.91 -21.65,-2 -21.65,10.96 -0.01,12.94 9.69,29.04 21.64,35.95"
       style="fill:#dadbd8;fill-opacity:1;fill-rule:nonzero;stroke:none"
       id="path364" /><path
       d="m 1107.13,3082.36 1094.08,631.66 c 11.95,6.91 21.65,2 21.65,-10.95 -0.01,-12.96 -9.7,-29.05 -21.66,-35.95 L 1107.12,3035.46 c -11.95,-6.9 -21.64,-2 -21.64,10.95 0,12.95 9.7,29.05 21.65,35.95"
       style="fill:#dadbd8;fill-opacity:1;fill-rule:nonzero;stroke:none"
       id="path366" /><path
       d="m 1107.13,2988.55 1094.08,631.66 c 11.95,6.91 21.65,2 21.65,-10.95 -0.01,-12.96 -9.7,-29.05 -21.66,-35.96 L 1107.12,2941.65 c -11.95,-6.9 -21.64,-2 -21.64,10.95 0,12.95 9.7,29.05 21.65,35.95"
       style="fill:#dadbd8;fill-opacity:1;fill-rule:nonzero;stroke:none"
       id="path368" /><path
       d="m 1107.13,2894.74 1094.08,631.66 c 11.95,6.91 21.65,2 21.65,-10.95 -0.01,-12.95 -9.7,-29.05 -21.66,-35.96 L 1107.12,2847.84 c -11.95,-6.91 -21.64,-2 -21.64,10.95 0,12.95 9.7,29.04 21.65,35.95"
       style="fill:#dadbd8;fill-opacity:1;fill-rule:nonzero;stroke:none"
       id="path370" /><path
       d="m 1107.13,2740.58 1094.08,631.66 c 11.95,6.9 21.65,2 21.65,-10.95 -0.01,-12.96 -9.7,-29.06 -21.66,-35.96 L 1107.13,2693.67 c -11.96,-6.9 -21.65,-1.99 -21.65,10.96 0,12.94 9.7,29.04 21.65,35.95"
       style="fill:#dadbd8;fill-opacity:1;fill-rule:nonzero;stroke:none"
       id="path372" /><path
       d="m 1107.13,2646.76 1094.08,631.67 c 11.95,6.9 21.65,2 21.65,-10.96 -0.01,-12.95 -9.7,-29.05 -21.66,-35.95 L 1107.13,2599.86 c -11.96,-6.9 -21.65,-2 -21.65,10.96 0,12.95 9.7,29.04 21.65,35.94"
       style="fill:#dadbd8;fill-opacity:1;fill-rule:nonzero;stroke:none"
       id="path374" /><path
       d="m 1107.13,2552.95 1094.08,631.67 c 11.95,6.9 21.65,2 21.65,-10.96 -0.01,-12.95 -9.7,-29.04 -21.66,-35.95 L 1107.13,2506.06 c -11.96,-6.91 -21.65,-2.01 -21.65,10.94 0,12.96 9.7,29.05 21.65,35.95"
       style="fill:#dadbd8;fill-opacity:1;fill-rule:nonzero;stroke:none"
       id="path376" /><path
       d="m 2455.74,2451.67 -1.73,-2.48 -690.09,218.81 c -54.19,24.07 -117.65,4.47 -149.13,-45.9 l -737.743,-1096.51 -27.281,-15.75 -0.246,-0.13 c -8.274,-4.59 -15.68,-5.21 -21.11,-2.35 l 758.73,1130.24 c 31.48,50.38 95.05,69.98 149.25,46.03 l 719.35,-231.96"
       style="fill:#26b6a6;fill-opacity:1;fill-rule:nonzero;stroke:none"
       id="path378" /><path
       d="m 2497.18,3697.36 h -0.13 c -1.48,8.94 -6.2,11.41 -12.28,7.2 -2.37,-1.62 -5.09,-4.35 -7.95,-8.2 l -3.48,-4.84 -680.99,-1035.32 -101.69,-141.67 c -11.42,-16.13 -36.5,-25.45 -55.99,-20.98 l -87.78,20.86 -670.074,246.68 c -4.839,1.12 -9.433,1.25 -13.656,0.5 -1.738,-0.37 -3.476,-0.87 -5.086,-1.61 l 25.254,14.6 642.422,-235.45 84.58,-30.18 c 19.37,-4.6 44.45,4.71 56,20.98 l 101.68,141.54 684.35,1040.16 c 2.23,3.11 4.96,5.34 7.7,7.08 l -59.22,34.14 24.82,14.28 40.98,-23.59 c 14.89,-8.69 27.43,-28.18 30.54,-46.18"
       style="fill:#26b6a6;fill-opacity:1;fill-rule:nonzero;stroke:none"
       id="path380" /><path
       d="m 2354.88,3563.46 v 0.02 l 97.48,148.15 -97.48,-148.17"
       style="fill:#06a38b;fill-opacity:1;fill-rule:nonzero;stroke:none"
       id="path382" /><path
       d="m 2060.14,3115.55 36.64,55.68 0.07,0.04 -36.63,-55.68 -0.08,-0.04 m 86.41,131.32 49.77,75.64 0.05,0.03 -49.76,-75.63 -0.06,-0.04 m 76.27,115.86 c -0.01,0.02 -0.01,0.03 -0.01,0.04 l 132.07,200.71 v -0.02 l -132.06,-200.73"
       style="fill:#eaeae7;fill-opacity:1;fill-rule:nonzero;stroke:none"
       id="path384" /><path
       d="m 2196.32,3322.51 26.49,40.26 c 0,-0.01 0,-0.02 0.01,-0.04 l -26.45,-40.19 -0.05,-0.03"
       style="fill:#ced0cd;fill-opacity:1;fill-rule:nonzero;stroke:none"
       id="path386" /><path
       d="m 2096.78,3171.23 49.77,75.64 0.06,0.04 -49.76,-75.64 -0.07,-0.04"
       style="fill:#ced0cd;fill-opacity:1;fill-rule:nonzero;stroke:none"
       id="path388" /><path
       d="m 2456,3715.66 c 0,0 0,0 0.01,0.01 -0.01,-0.01 -0.01,-0.01 -0.01,-0.01 m 0.08,0.07 c 1.23,1.1 2.57,2.09 3.98,2.98 -1.35,-0.86 -2.7,-1.83 -3.98,-2.98"
       style="fill:#06a38b;fill-opacity:1;fill-rule:nonzero;stroke:none"
       id="path390" /><path
       d="m 2483.11,3728.48 c -0.01,0.01 -0.01,0.02 -0.02,0.02 0.01,0 0.02,-0.02 0.02,-0.02 m -0.1,0.13 c -4.77,6.19 -10.38,11.44 -16.37,14.93 l -37.36,21.51 -3.66,2.11 h 0.01 v 0.02 l 40.96,-23.59 c 6.01,-3.5 11.64,-8.77 16.42,-14.98"
       style="fill:#efefed;fill-opacity:1;fill-rule:nonzero;stroke:none"
       id="path392" /><path
       d="m 2401.72,3753.36 23.91,13.8 3.65,-2.11 -3.62,2.08 -23.94,-13.77"
       style="fill:#06a38b;fill-opacity:1;fill-rule:nonzero;stroke:none"
       id="path394" /><path
       d="m 2400.86,3752.87 -0.07,0.04 24.84,14.27 v -0.02 l -23.91,-13.8 -0.86,-0.49"
       style="fill:#0aac94;fill-opacity:1;fill-rule:nonzero;stroke:none"
       id="path396" /><path
       d="m 2060.22,3115.59 36.63,55.68 49.76,75.64 49.76,75.63 26.45,40.19 132.06,200.73 97.48,148.17 c 1.08,1.5 2.3,2.83 3.64,4.03 0,0 0,0 0.01,0.01 0.02,0.02 0.04,0.04 0.07,0.06 1.28,1.15 2.63,2.12 3.98,2.98 v 0 l 0.1,-0.06 -0.15,0.11 -59.15,34.11 0.86,0.49 23.94,13.77 3.62,-2.08 37.36,-21.51 c 5.99,-3.49 11.6,-8.74 16.37,-14.93 0.03,-0.04 0.05,-0.07 0.08,-0.11 0.01,0 0.01,-0.01 0.02,-0.02 6.7,-8.76 11.72,-19.38 13.76,-29.63 -1.24,5.16 -3.67,7.8 -6.86,7.8 -2.81,0 -6.23,-2.05 -9.96,-6.23 -1.06,-1.17 -2.16,-2.5 -3.27,-4 l -3.48,-4.85 -357.91,-544.12 -55.17,-31.86"
       style="fill:#25b5a2;fill-opacity:1;fill-rule:nonzero;stroke:none"
       id="path398" /><path
       d="m 890.43,2741.28 -146.102,84.38 0.008,-1257.57 c 0,-19.79 14.016,-44.07 31.148,-53.96 l 35.11,-20.27 c 17.136,-9.89 45.176,-9.89 62.308,0 l 17.528,10.12 v 1237.3"
       style="fill:#26b6a6;fill-opacity:1;fill-rule:nonzero;stroke:none"
       id="path400" /><path
       d="m 841.746,1486.44 c -11.293,0 -22.586,2.47 -31.152,7.42 l -35.11,20.27 c -17.132,9.89 -31.148,34.17 -31.148,53.96 l -0.008,1257.57 25.297,-14.61 -0.078,-0.05 56.871,-32.75 31.633,-18.27 c -9.797,-4.05 -16.242,-13.73 -16.242,-26.45 V 1532.19 l -0.047,-20.3 v 0 c 0,-2.53 0.226,-4.86 0.652,-6.99 v 0 c 0.004,-0.01 0.004,-0.03 0.008,-0.04 1.312,-6.58 4.539,-11.19 9.066,-13.51 2.168,-1.13 4.653,-1.72 7.375,-1.72 0.606,0 1.219,0.03 1.848,0.09 3.68,0.32 7.73,1.65 12.004,4.06 l 0.238,0.12 17.477,10.09 v -0.01 l -17.528,-10.12 c -0.871,-0.5 -1.769,-0.98 -2.691,-1.43 -8.172,-3.99 -18.316,-5.99 -28.461,-5.99 h -0.004"
       style="fill:#06ab91;fill-opacity:1;fill-rule:nonzero;stroke:none"
       id="path402" /><path
       d="M 2497.8,3689.53 V 2467.96 c 0,-10.31 -3.73,-21.6 -9.68,-31.54 -4.97,-8.19 -11.18,-15.52 -18.26,-20.48 l -1.24,-0.62 -1.98,-1.37 -1593.671,-919.99 -0.246,-0.13 c -8.317,-4.72 -15.77,-5.34 -21.235,-2.48 -4.836,2.48 -8.191,7.57 -9.308,14.9 -0.25,1.73 -0.371,3.6 -0.371,5.58 v 1221.7 c 0,19.74 15.515,32.15 35.007,27.56 l 670.074,-246.68 87.78,-20.86 c 19.49,-4.47 44.57,4.85 55.99,20.98 l 101.69,141.67 680.99,1035.32 3.48,4.84 c 11.55,16.02 20.98,13.03 20.98,-6.83"
       style="fill:#26b6a6;fill-opacity:1;fill-rule:nonzero;stroke:none"
       id="path404" /><path
       d="m 858.863,1489.63 c -2.722,0 -5.207,0.59 -7.375,1.72 -4.527,2.32 -7.754,6.93 -9.066,13.51 1.316,-6.53 4.539,-11.12 9.023,-13.46 l 100.883,149.43 -100.84,-149.45 v 0 c 2.207,-1.15 4.723,-1.74 7.473,-1.74 0.574,0 1.156,0.03 1.75,0.08 -0.629,-0.06 -1.242,-0.09 -1.848,-0.09 m 1256.657,1657.89 357.82,544 3.48,4.84 c 4.99,6.92 9.58,10.29 13.19,10.29 4.75,0 7.79,-5.83 7.79,-17.12 v -321.32 l -382.28,-220.69"
       style="fill:#14b099;fill-opacity:1;fill-rule:nonzero;stroke:none"
       id="path406" /><path
       d="m 1224.46,2633.11 -347.644,127.98 347.644,-127.98 v 0"
       style="fill:#14b099;fill-opacity:1;fill-rule:nonzero;stroke:none"
       id="path408" /><path
       d="m 841.809,1532.19 v 1201.34 c 0,12.73 6.449,22.41 16.254,26.45 h 0.011 l 0.047,0.02 c 3.25,1.33 6.863,2.05 10.734,2.05 2.555,0 5.219,-0.31 7.961,-0.96 v 0 l 347.644,-127.98 -4.27,-2.47 c -3.66,-2.11 -7.17,-4.84 -10.45,-8.03 -4.79,-4.62 -9.06,-10.19 -12.52,-16.19 v 0 0 l 0.07,-0.04 v 0 l -0.07,0.04 c -5.78,-10.05 -9.44,-21.47 -9.44,-31.68 V 2045.31 L 841.809,1532.19"
       style="fill:#14b099;fill-opacity:1;fill-rule:nonzero;stroke:none"
       id="path410" /><path
       d="M 1542.77,2515.92 851.445,1491.4 c -5.957,3.11 -9.683,10.18 -9.683,20.49 l 0.047,20.3 679.961,1008.4 21,-24.67"
       style="fill:#26b6a6;fill-opacity:1;fill-rule:nonzero;stroke:none"
       id="path412" /><path
       d="m 851.445,1491.4 c -4.484,2.34 -7.707,6.93 -9.023,13.46 v 0 c 1.316,-6.53 4.539,-11.12 9.023,-13.46 l 336.335,498.44 v -0.05 L 952.328,1640.83 851.445,1491.4"
       style="fill:#08917e;fill-opacity:1;fill-rule:nonzero;stroke:none"
       id="path414" /><path
       d="m 841.809,1532.19 345.971,513.12 v -0.04 L 841.809,1532.19"
       style="fill:#08917e;fill-opacity:1;fill-rule:nonzero;stroke:none"
       id="path416" /><path
       d="m 851.445,1491.4 c -4.484,2.34 -7.707,6.93 -9.023,13.46 -0.434,2.14 -0.66,4.49 -0.66,7.03 l 0.047,20.3 345.971,513.08 v -55.43 L 851.445,1491.4"
       style="fill:#0cad96;fill-opacity:1;fill-rule:nonzero;stroke:none"
       id="path418" /><path
       d="m 2466.62,2413.94 2.04,1.32 1.19,0.72 c 7.08,4.91 13.33,12.23 18.24,20.38 5.89,9.79 9.55,20.96 9.66,31.02 l -705.36,188.8 472.35,-358.79 201.88,116.55"
       style="fill:#26b6a6;fill-opacity:1;fill-rule:nonzero;stroke:none"
       id="path420" /><path
       d="m 2488.09,2436.36 c -4.91,-8.15 -11.16,-15.47 -18.24,-20.38 l -1.19,-0.72 -1595.707,-921.36 -0.238,-0.12 c -8.27,-4.67 -15.707,-5.27 -21.227,-2.4 l 763.142,1131.04 c 31.63,50.49 95.54,70.1 150.04,46.04 l 723.42,-232.1"
       style="fill:#26b6a6;fill-opacity:1;fill-rule:nonzero;stroke:none"
       id="path422" /><path
       d="m 858.961,1489.64 c -2.75,0 -5.266,0.59 -7.473,1.74 l 336.292,498.41 v -314.11 l -314.827,-181.78 -0.238,-0.12 c -4.961,-2.8 -9.625,-4.14 -13.754,-4.14"
       style="fill:#19b19d;fill-opacity:1;fill-rule:nonzero;stroke:none"
       id="path424" /><path
       d="m 744.328,2825.7 -0.023,0.01 c 0,0 0,45.07 0,79.09 0,3.95 0.359,8.28 1.027,12.82 -0.652,-4.55 -1.004,-8.89 -1.004,-12.87 0,-33.67 0,-78.12 0,-79.05"
       style="fill:#d2d4d1;fill-opacity:1;fill-rule:nonzero;stroke:none"
       id="path426" /><path
       d="m 769.598,2811.08 -25.27,14.62 c 0,0.93 0,45.38 0,79.05 0,3.98 0.352,8.32 1.004,12.87 0.988,6.74 2.652,13.95 4.805,21.07 l 25.222,-14.59 c -3.179,-10.58 -5.265,-21.42 -5.683,-30.67 -0.004,-0.04 -0.004,-0.08 -0.004,-0.12 -0.004,-0.02 -0.004,-0.04 -0.004,-0.06 -0.051,-1.09 -0.074,-2.15 -0.07,-3.18 v 0 c 0,-33.23 0,-76.98 0,-78.99"
       style="fill:#19b19d;fill-opacity:1;fill-rule:nonzero;stroke:none"
       id="path428" /><path
       d="m 769.668,2893.25 c 0,0.02 0,0.04 0.004,0.06 -0.004,-0.02 -0.004,-0.04 -0.004,-0.06 m 0.008,0.18 c 0.418,9.25 2.504,20.09 5.683,30.67 l 0.106,-0.06 -0.16,-0.26 c -3.125,-10.49 -5.207,-21.19 -5.629,-30.35"
       style="fill:#0aac94;fill-opacity:1;fill-rule:nonzero;stroke:none"
       id="path430" /><path
       d="m 769.598,2890.07 c -0.004,1.03 0.019,2.09 0.07,3.18 -0.047,-1.09 -0.07,-2.15 -0.07,-3.18 m 0.074,3.24 c 0,0.04 0,0.08 0.004,0.12 -0.004,-0.04 -0.004,-0.08 -0.004,-0.12"
       style="fill:#0eae97;fill-opacity:1;fill-rule:nonzero;stroke:none"
       id="path432" /><path
       d="m 769.629,2811.06 -0.031,0.02 c 0,2.01 0,45.76 0,78.99 v 0 c 0,1.03 0.023,2.09 0.07,3.18 0,0.02 0,0.04 0.004,0.06 0,0.04 0,0.08 0.004,0.12 0.422,9.16 2.504,19.86 5.629,30.35 l 0.16,0.26 c -3.598,-11.92 -5.836,-24.09 -5.836,-34.02 0,-34.02 0,-78.96 0,-78.96"
       style="fill:#06a088;fill-opacity:1;fill-rule:nonzero;stroke:none"
       id="path434" /><path
       d="m 883.328,2774.58 -25.254,-14.6 -25.578,14.77 -62.949,36.25 24.457,14.53 89.324,-50.95"
       style="fill:#26b6a6;fill-opacity:1;fill-rule:nonzero;stroke:none"
       id="path436" /><path
       d="m 884.109,2774.29 -0.781,0.29 -88.945,50.73 v 0 l 89.726,-51.02"
       style="fill:#06a38b;fill-opacity:1;fill-rule:nonzero;stroke:none"
       id="path438" /><path
       d="m 794.383,2825.31 -0.379,0.22 0.379,-0.22 v 0"
       style="fill:#0aac94;fill-opacity:1;fill-rule:nonzero;stroke:none"
       id="path440" /><path
       d="m 1224.47,2633.11 -296.775,109.25 -50.922,18.79 c -2.82,0.65 -5.554,0.96 -8.187,0.96 -1.883,0 -3.707,-0.16 -5.469,-0.47 -1.633,-0.34 -3.246,-0.84 -4.781,-1.51 l 24.992,14.45 0.781,-0.29 0.34,-0.19 357.411,-130.95 -17.39,-10.04"
       style="fill:#25b5a2;fill-opacity:1;fill-rule:nonzero;stroke:none"
       id="path442" /><path
       d="m 858.074,2759.98 -25.578,14.77 -6.078,3.5 -56.871,32.75 24.457,14.53 0.379,-0.22 88.945,-50.73 -24.992,-14.45 v 0 l -0.262,-0.15"
       style="fill:#25b5a2;fill-opacity:1;fill-rule:nonzero;stroke:none"
       id="path444" /><path
       d="m 1188,2574.88 c 0,20.54 14.41,45.5 32.19,55.76 l 1588.22,916.89 c 17.78,10.26 46.61,10.27 64.38,0 l 36.29,-20.95 c 17.79,-10.26 32.2,-35.22 32.2,-55.76 V 2208.43 c 0,-20.44 -14.49,-45.53 -32.2,-55.75 L 1320.87,1235.79 c -17.71,-10.22 -46.68,-10.22 -64.39,0 l -36.28,20.94 c -17.7,10.23 -32.19,35.32 -32.19,55.77 L 1188,2574.88"
       style="fill:#26b6a6;fill-opacity:1;fill-rule:nonzero;stroke:none"
       id="path446" /><path
       d="m 1197.22,2606.42 91.38,-52.69 1643.05,948.65 c -5.79,10.05 -13.86,18.88 -22.69,24.06 l -36.4,20.86 c -17.67,10.36 -46.6,10.36 -64.27,0 L 1220.06,2630.48 c -8.98,-5.18 -17.05,-14.01 -22.84,-24.06"
       style="fill:#26b6a6;fill-opacity:1;fill-rule:nonzero;stroke:none"
       id="path448" /><path
       d="m 1288.6,2553.73 -91.38,52.69 c 5.79,10.05 13.86,18.88 22.84,24.06 l 1588.23,916.82 c 8.83,5.18 20.49,7.77 32.14,7.77 11.65,0 23.3,-2.59 32.13,-7.77 l 36.4,-20.86 c 8.83,-5.18 16.9,-14.01 22.69,-24.06 L 1288.6,2553.73"
       style="fill:#52c5b8;fill-opacity:1;fill-rule:nonzero;stroke:none"
       id="path450" /><path
       d="m 1288.54,1227.97 c -3.41,0 -6.82,0.21 -10.15,0.64 -4.72,0.61 -9.13,1.67 -13.25,3.04 -3.19,1.07 -6.09,2.44 -8.83,3.96 l -36.25,21.02 c -17.81,10.2 -32.28,35.18 -32.28,55.74 v 315.6 l 0.23,0.13 v -315.6 c 0,-20.45 14.49,-45.54 32.19,-55.77 l 36.28,-20.94 c 8.85,-5.11 20.52,-7.67 32.19,-7.67 8.09,0 16.19,1.23 23.34,3.69 0.66,0.17 1.32,0.38 2,0.62 -1.16,-0.46 -2.5,-0.89 -3.87,-1.35 -1.98,-0.61 -4.16,-1.15 -6.29,-1.61 -4.96,-1.01 -10.14,-1.5 -15.31,-1.5"
       style="fill:#c0c1bf;fill-opacity:1;fill-rule:nonzero;stroke:none"
       id="path452" /><path
       d="m 1187.78,1627.97 v 47.68 l 0.23,0.14 v -47.69 l -0.23,-0.13"
       style="fill:#c0c1bf;fill-opacity:1;fill-rule:nonzero;stroke:none"
       id="path454" /><path
       d="m 1187.78,1675.65 v 0.03 l 0.23,0.13 v -0.02 l -0.23,-0.14"
       style="fill:#069983;fill-opacity:1;fill-rule:nonzero;stroke:none"
       id="path456" /><path
       d="m 1187.78,2045.31 v 529.43 c 0,10.21 3.66,21.63 9.44,31.68 l 0.07,-0.04 c -5.74,-10.03 -9.29,-21.31 -9.29,-31.5 v -529.24 l -0.22,-0.33"
       style="fill:#09ac93;fill-opacity:1;fill-rule:nonzero;stroke:none"
       id="path458" /><path
       d="m 1187.78,1989.79 v 0.05 l 0.22,0.33 v -0.05 l -0.22,-0.33"
       style="fill:#0a7f6f;fill-opacity:1;fill-rule:nonzero;stroke:none"
       id="path460" /><path
       d="m 1187.78,2045.27 v 0.04 l 0.22,0.33 v -0.03 l -0.22,-0.34"
       style="fill:#0a7f6f;fill-opacity:1;fill-rule:nonzero;stroke:none"
       id="path462" /><path
       d="m 1187.78,1989.84 v 55.43 l 0.22,0.34 v -55.44 l -0.22,-0.33"
       style="fill:#05a58d;fill-opacity:1;fill-rule:nonzero;stroke:none"
       id="path464" /><path
       d="m 1187.78,1675.68 v 314.11 l 0.22,0.33 0.01,-314.31 -0.23,-0.13"
       style="fill:#0fae96;fill-opacity:1;fill-rule:nonzero;stroke:none"
       id="path466" /><path
       d="m 1288.67,1228.12 c -11.67,0 -23.34,2.56 -32.19,7.67 l -36.28,20.94 c -17.7,10.23 -32.19,35.32 -32.19,55.77 v 315.6 47.69 0.02 l -0.01,314.31 v 0.05 55.44 0.03 529.24 c 0,10.19 3.55,21.47 9.29,31.5 l 91.31,-52.65 c 0,0 0,-23.91 0,-37.17 V 1254.19 c 0,-10.66 3.81,-17.97 9.9,-21.17 2.42,-1.21 5.18,-1.92 8.2,-1.92 1.69,0 3.46,0.22 5.31,0.71 -7.15,-2.46 -15.25,-3.69 -23.34,-3.69"
       style="fill:#1db3a0;fill-opacity:1;fill-rule:nonzero;stroke:none"
       id="path468" /><path
       d="m 1464.07,2444.15 461.45,266.43 c 7.18,4.14 12.99,0.78 13,-7.5 v -3.64 c 0,-8.29 -5.81,-18.36 -12.99,-22.5 l -461.46,-266.43 c -7.18,-4.14 -12.99,-0.78 -12.99,7.5 v 3.64 c 0,8.28 5.81,18.35 12.99,22.5"
       style="fill:#33535f;fill-opacity:1;fill-rule:nonzero;stroke:none"
       id="path470" /><path
       d="m 1464.07,2367.15 461.45,266.44 c 7.18,4.14 12.99,0.78 13,-7.5 v -3.64 c 0,-8.29 -5.81,-18.36 -12.99,-22.5 l -461.46,-266.43 c -7.18,-4.14 -12.99,-0.78 -12.99,7.5 v 3.63 c 0,8.29 5.81,18.36 12.99,22.5"
       style="fill:#33535f;fill-opacity:1;fill-rule:nonzero;stroke:none"
       id="path472" /><path
       d="m 1464.07,2290.16 461.45,266.43 c 7.18,4.14 12.99,0.79 13,-7.5 v -3.63 c 0,-8.29 -5.81,-18.36 -12.99,-22.5 l -461.46,-266.43 c -7.18,-4.14 -12.99,-0.79 -12.99,7.5 v 3.63 c 0,8.29 5.81,18.36 12.99,22.5"
       style="fill:#33535f;fill-opacity:1;fill-rule:nonzero;stroke:none"
       id="path474" /><path
       d="m 2302.31,2313.87 461.45,266.43 c 7.18,4.14 13,0.79 13,-7.5 v -3.64 c 0,-8.28 -5.81,-18.35 -12.99,-22.5 l -461.46,-266.42 c -7.18,-4.14 -12.99,-0.79 -12.99,7.5 v 3.63 c 0,8.28 5.81,18.36 12.99,22.5"
       style="fill:#33535f;fill-opacity:1;fill-rule:nonzero;stroke:none"
       id="path476" /><path
       d="m 2302.31,2236.88 461.45,266.43 c 7.18,4.14 13,0.78 13,-7.5 v -3.64 c 0,-8.28 -5.81,-18.36 -12.99,-22.5 l -461.46,-266.42 c -7.18,-4.15 -12.99,-0.79 -12.99,7.5 v 3.63 c 0,8.28 5.81,18.36 12.99,22.5"
       style="fill:#33535f;fill-opacity:1;fill-rule:nonzero;stroke:none"
       id="path478" /><path
       d="m 2302.31,2159.89 461.45,266.43 c 7.18,4.14 13,0.79 13,-7.5 v -3.64 c 0,-8.28 -5.81,-18.36 -12.99,-22.5 l -461.46,-266.42 c -7.18,-4.15 -12.99,-0.79 -12.99,7.5 v 3.63 c 0,8.28 5.81,18.35 12.99,22.5"
       style="fill:#33535f;fill-opacity:1;fill-rule:nonzero;stroke:none"
       id="path480" /><path
       d="m 2302.31,2082.9 461.45,266.43 c 7.18,4.14 13,0.78 13,-7.5 v -3.64 c 0,-8.29 -5.81,-18.36 -12.99,-22.5 l -461.46,-266.43 c -7.18,-4.14 -12.99,-0.78 -12.99,7.5 v 3.64 c 0,8.28 5.81,18.36 12.99,22.5"
       style="fill:#33535f;fill-opacity:1;fill-rule:nonzero;stroke:none"
       id="path482" /><path
       d="m 2522.81,2686.32 c -5.69,0 -9.61,7.66 -6.95,19.69 l 0.03,0.15 c 1.92,8.7 0.33,16.41 -3.9,18.87 l -5.39,3.12 c -6.28,3.64 -6.28,18.14 0,29.03 6.28,10.88 6.28,25.39 0,29.03 -6.28,3.64 -6.28,18.14 0,29.03 6.28,10.88 6.28,25.39 0,29.02 -6.28,3.64 -6.28,18.14 0,29.03 6.28,10.89 6.28,25.39 0,29.03 v 0 c -6.28,3.64 -6.28,18.14 0,29.02 6.28,10.89 6.28,25.39 0,29.03 -6.28,3.64 -6.28,18.15 0,29.03 l 5.39,9.35 c 4.23,7.34 5.82,16.89 3.9,23.37 l -0.03,0.11 c -3.82,12.85 5.92,32.37 14.99,32.37 0.79,0 1.59,-0.15 2.36,-0.47 l 1.23,-0.5 c -5.8,-6.52 -9.84,-18.88 -7.14,-27.94 l 0.03,-0.11 c 1.93,-6.47 0.34,-16.03 -3.9,-23.37 l -5.38,-9.34 c -6.28,-10.89 -6.28,-25.39 0,-29.03 6.27,-3.64 6.27,-18.14 0,-29.03 -6.28,-10.89 -6.28,-25.39 0,-29.03 6.27,-3.63 6.27,-18.14 0,-29.03 -6.28,-10.88 -6.28,-25.39 0,-29.02 6.27,-3.64 6.27,-18.14 0,-29.03 -6.28,-10.89 -6.28,-25.39 0,-29.03 6.27,-3.64 6.27,-18.14 0,-29.03 -6.28,-10.88 -6.28,-25.39 0,-29.03 l 5.38,-3.12 c 4.24,-2.45 5.83,-10.16 3.9,-18.87 l -0.03,-0.14 c -2.08,-9.38 -0.16,-16.1 3.48,-18.61 -2.73,-3.12 -5.52,-4.55 -7.97,-4.55 m 38.83,7.39 c -1.79,0 -3.45,0.76 -4.79,2.4 l -5.92,7.2 c -0.44,0.53 -0.92,0.98 -1.42,1.33 2.64,2.96 5.5,4.53 8.07,4.53 1.8,0 3.46,-0.78 4.79,-2.4 l 5.92,-7.19 c 0.44,-0.54 0.92,-0.99 1.42,-1.34 -2.61,-2.92 -5.48,-4.53 -8.07,-4.53 m 43.09,24.88 c -1.78,0 -3.44,0.76 -4.79,2.4 l -3.65,4.45 c -0.44,0.54 -0.92,0.98 -1.43,1.33 2.61,2.92 5.48,4.53 8.08,4.53 1.78,0 3.44,-0.76 4.79,-2.4 l 3.66,-4.45 c 0.44,-0.53 0.92,-0.98 1.42,-1.33 -2.61,-2.92 -5.48,-4.53 -8.08,-4.53 m 43.09,24.88 c -1.78,0 -3.44,0.76 -4.78,2.4 l -3.66,4.44 c -0.45,0.54 -0.92,0.99 -1.42,1.34 2.61,2.92 5.48,4.53 8.07,4.53 1.79,0 3.44,-0.76 4.79,-2.4 l 3.65,-4.44 c 0.45,-0.54 0.92,-0.99 1.43,-1.34 -2.61,-2.92 -5.48,-4.53 -8.08,-4.53 m 43.1,24.88 c -1.79,0 -3.45,0.77 -4.8,2.4 l -3.65,4.45 c -0.44,0.53 -0.92,0.98 -1.42,1.33 2.61,2.92 5.48,4.53 8.07,4.53 1.79,0 3.45,-0.76 4.8,-2.4 l 3.65,-4.45 c 0.44,-0.53 0.92,-0.98 1.43,-1.33 -2.62,-2.92 -5.49,-4.53 -8.08,-4.53 m 43.09,24.88 c -1.79,0 -3.44,0.76 -4.79,2.4 l -3.65,4.45 c -0.45,0.53 -0.92,0.98 -1.43,1.33 2.61,2.92 5.49,4.53 8.08,4.53 1.79,0 3.45,-0.76 4.79,-2.4 l 3.65,-4.44 c 0.45,-0.54 0.92,-0.98 1.43,-1.34 -2.61,-2.92 -5.48,-4.53 -8.08,-4.53 m 39.11,37.59 c -0.8,0 -1.59,0.15 -2.37,0.47 l -1.15,0.48 c 2.55,2.81 5.36,4.41 7.95,4.41 0.77,0 1.52,-0.14 2.24,-0.44 l 1.18,-0.48 c -2.43,-2.73 -5.17,-4.44 -7.85,-4.44 m -223.82,225.35 c -0.77,0 -1.52,0.14 -2.24,0.44 l -1.26,0.51 c 1.94,2.14 3.72,4.96 5.13,8.32 l 5.92,14.02 c 3.36,7.96 8.64,12.73 13.1,12.73 1.2,0 2.34,-0.34 3.37,-1.06 -1.88,-2.1 -3.62,-4.87 -5.03,-8.2 l -5.92,-14.03 c -3.27,-7.77 -8.53,-12.73 -13.07,-12.73 m 45.33,30.24 c -1.2,0 -2.34,0.34 -3.37,1.06 1.88,2.1 3.62,4.88 5.03,8.21 l 3.65,8.66 c 3.36,7.96 8.64,12.74 13.1,12.74 1.2,0 2.34,-0.35 3.37,-1.07 -1.88,-2.1 -3.62,-4.87 -5.02,-8.21 l -3.66,-8.66 c -3.36,-7.96 -8.64,-12.73 -13.1,-12.73 m 43.09,24.88 c -1.2,0 -2.34,0.34 -3.37,1.07 1.88,2.09 3.62,4.87 5.03,8.2 l 3.66,8.66 c 3.35,7.96 8.64,12.73 13.1,12.73 1.2,0 2.34,-0.34 3.36,-1.06 -1.88,-2.1 -3.62,-4.87 -5.03,-8.2 l -3.65,-8.67 c -3.36,-7.96 -8.64,-12.73 -13.1,-12.73 m 43.1,24.88 c -1.2,0 -2.34,0.34 -3.37,1.07 1.87,2.09 3.62,4.87 5.02,8.2 l 3.65,8.66 c 3.36,7.96 8.65,12.73 13.11,12.73 1.2,0 2.34,-0.34 3.37,-1.06 -1.88,-2.1 -3.62,-4.87 -5.03,-8.2 l -3.65,-8.67 c -3.36,-7.96 -8.64,-12.73 -13.1,-12.73 m 43.09,24.88 c -1.2,0 -2.34,0.34 -3.37,1.06 1.88,2.1 3.62,4.88 5.03,8.21 l 3.65,8.66 c 3.36,7.96 8.64,12.73 13.1,12.73 1.2,0 2.34,-0.34 3.37,-1.07 -1.88,-2.09 -3.62,-4.87 -5.03,-8.2 l -3.65,-8.66 c -3.36,-7.96 -8.64,-12.73 -13.1,-12.73 m 45.36,22.13 c -1.21,0 -2.35,0.35 -3.37,1.07 0.84,0.94 1.67,2.03 2.45,3.26 l 2.4,3.77 c 3.46,5.41 7.22,7.83 10.41,7.83 1.26,0 2.43,-0.38 3.47,-1.1 -0.82,-0.93 -1.63,-2.02 -2.43,-3.27 l -2.41,-3.77 c -3.23,-5.05 -7.13,-7.79 -10.52,-7.79"
       style="fill:#1db3a0;fill-opacity:1;fill-rule:nonzero;stroke:none"
       id="path484" /><path
       d="m 2586.18,3093.25 3.65,-4.43 c 4.71,-5.73 13.2,-0.83 17.9,10.32 l 3.66,8.66 c 4.69,11.16 13.18,16.05 17.89,10.34 l 3.65,-4.45 c 4.71,-5.72 13.18,-0.82 17.89,10.33 l 3.65,8.67 c 4.71,11.15 13.2,16.05 17.89,10.32 l 3.67,-4.44 c 4.7,-5.72 13.18,-0.82 17.89,10.33 l 3.65,8.67 c 4.71,11.15 13.18,16.04 17.89,10.33 l 3.65,-4.45 c 4.71,-5.72 13.2,-0.82 17.9,10.33 l 3.65,8.66 c 4.71,11.16 13.19,16.05 17.9,10.33 l 5.91,-7.19 c 3.83,-4.66 10.36,-2.36 15.32,5.39 l 2.41,3.77 c 9.61,15.06 21.5,6.92 17.35,-11.87 l -0.04,-0.14 c -1.92,-8.7 -0.33,-16.42 3.91,-18.87 l 5.38,-3.12 c 6.28,-3.64 6.28,-18.15 0,-29.03 -6.28,-10.89 -6.28,-25.39 0,-29.03 6.28,-3.64 6.28,-18.14 0,-29.03 -6.28,-10.88 -6.28,-25.39 0,-29.02 6.28,-3.64 6.28,-18.14 0,-29.03 -6.28,-10.89 -6.28,-25.39 0,-29.03 6.28,-3.64 6.28,-18.14 0,-29.03 -6.28,-10.89 -6.28,-25.39 0,-29.03 6.28,-3.64 6.28,-18.14 0,-29.03 l -5.39,-9.34 c -4.23,-7.34 -5.82,-16.9 -3.9,-23.37 l 0.03,-0.11 c 4.16,-13.99 -7.73,-35.86 -17.34,-31.9 l -2.41,0.98 c -4.96,2.04 -11.49,-3.2 -15.32,-12.29 l -5.91,-14.03 c -4.71,-11.15 -13.19,-16.04 -17.9,-10.32 l -3.65,4.44 c -4.7,5.72 -13.19,0.82 -17.9,-10.33 l -3.65,-8.66 c -4.71,-11.15 -13.18,-16.05 -17.89,-10.34 l -3.65,4.45 c -4.71,5.72 -13.19,0.82 -17.89,-10.33 l -3.67,-8.67 c -4.69,-11.15 -13.18,-16.05 -17.89,-10.32 l -3.65,4.44 c -4.71,5.72 -13.18,0.82 -17.89,-10.33 l -3.65,-8.66 c -4.71,-11.16 -13.2,-16.05 -17.89,-10.34 l -3.66,4.45 c -4.7,5.72 -13.19,0.82 -17.9,-10.33 l -3.65,-8.66 c -4.7,-11.16 -13.18,-16.06 -17.89,-10.33 l -5.92,7.19 c -3.82,4.66 -10.37,2.36 -15.31,-5.39 l -2.41,-3.77 c -9.61,-15.06 -21.51,-6.92 -17.35,11.87 l 0.03,0.14 c 1.93,8.71 0.34,16.42 -3.9,18.87 l -5.38,3.12 c -6.28,3.64 -6.28,18.15 0,29.03 6.27,10.89 6.27,25.39 0,29.03 -6.28,3.64 -6.28,18.14 0,29.03 6.27,10.89 6.27,25.39 0,29.03 -6.28,3.63 -6.28,18.14 0,29.02 6.27,10.89 6.27,25.4 0,29.03 -6.28,3.64 -6.28,18.14 0,29.03 6.27,10.89 6.27,25.39 0,29.03 -6.28,3.64 -6.28,18.14 0,29.03 l 5.38,9.34 c 4.24,7.34 5.83,16.9 3.9,23.37 l -0.03,0.11 c -4.16,13.99 7.74,35.86 17.35,31.9 l 2.41,-0.98 c 4.94,-2.04 11.49,3.21 15.31,12.29 l 5.92,14.03 c 4.71,11.15 13.19,16.05 17.89,10.32"
       style="fill:#ededeb;fill-opacity:1;fill-rule:nonzero;stroke:none"
       id="path486" /><path
       d="m 2575.59,3054.63 175.67,101.42 c 16.74,9.67 30.31,1.83 30.31,-17.5 v -248.32 c 0,-19.33 -13.57,-42.84 -30.31,-52.5 L 2575.59,2736.3 c -16.74,-9.67 -30.32,-1.83 -30.32,17.5 v 248.33 c 0,19.33 13.58,42.83 30.32,52.5"
       style="fill:#33535f;fill-opacity:1;fill-rule:nonzero;stroke:none"
       id="path488" /><path
       d="m 4084.68,1217.71 -0.13,1.58 v 0.49 l -0.24,1.46 -0.49,2.06 -0.97,2.31 c -1.46,3.17 -4.14,6.09 -7.78,8.64 l -0.37,0.37 -1.21,0.72 -1.34,0.86 -0.49,0.36 -1047.01,604.58 -2.07,1.1 c -18.85,10.46 -40.02,15.2 -60.82,14.35 l -0.97,-0.12 c -17.89,-0.85 -35.53,-5.96 -51.46,-15.2 l -0.24,-0.13 -76.03,-43.79 -1320.47,-762.47 -168.23,-97.079 -0.49,-0.371 c -9.86,-7.66 -15.08,-18.852 -15.7,-30.282 v -0.367 -90.14 -0.36 -2.32 c 0,-13.992 6.82,-27.731 20.57,-35.762 l 0.12,-0.121 16.54,-9.488 1026.21,-592.539 c 9,-5.231 20.92,-7.781 32.72,-7.539 10.94,0.117 21.77,2.679 30.16,7.418 l 0.37,0.121 1411.95,815.148 204.85,118.241 1.94,1.34 1.23,0.73 c 6.44,4.5 9.48,10.1 9.85,15.69 0,1.59 -0.37,84.91 0,90.51"
       style="fill:#26b6a6;fill-opacity:1;fill-rule:nonzero;stroke:none"
       id="path538" /><path
       d="m 2392.71,175.43 c -0.02,0.011 -0.04,0.031 -0.07,0.039 0.03,-0.008 0.05,-0.028 0.07,-0.039 m -0.14,0.082 c -0.32,0.179 -0.64,0.359 -0.96,0.539 L 1365.4,768.59 l -16.54,9.488 -0.12,0.121 c -13.75,8.031 -20.57,21.77 -20.57,35.762 v 0 c 0,-13.992 6.82,-27.731 20.57,-35.762 l 0.12,-0.121 16.54,-9.488 1026.21,-592.539 c 0.32,-0.18 0.64,-0.36 0.96,-0.539"
       style="fill:#9b9d9d;fill-opacity:1;fill-rule:nonzero;stroke:none"
       id="path540" /><path
       d="m 2423.35,168.551 -2.5,0.09 c -2.04,0.07 -4.08,0.109 -6.09,0.328 l -0.09,0.019 c -2.78,0.301 -5.52,0.75 -8.17,1.364 l -2.32,0.699 c -1.84,0.488 -3.7,0.98 -5.43,1.64 -2.12,0.797 -4.14,1.707 -6.04,2.739 -0.02,0.011 -0.04,0.031 -0.07,0.039 -0.02,0.011 -0.04,0.019 -0.07,0.043 -0.32,0.179 -0.64,0.359 -0.96,0.539 L 1365.4,768.59 l -16.54,9.488 -0.12,0.121 c -13.75,8.031 -20.57,21.77 -20.57,35.762 v 2.32 0.36 86.418 c 0.23,-6.661 2,-13.231 5.34,-19.11 2.27,-4.16 5.23,-7.687 8.77,-10.66 1.95,-1.68 4.1,-3.219 6.46,-4.59 l 0.12,-0.121 16.54,-9.488 200.84,-115.879 807.49,-466.332 v -0.008 l 17.83,-10.301 c 0.63,-0.359 1.28,-0.711 1.94,-1.05 5.28,-2.739 11.39,-4.59 17.85,-5.598 3.85,-0.602 7.82,-0.91 11.8,-0.91 0.06,0 0.13,0 0.2,0 v -90.461"
       style="fill:#0cad96;fill-opacity:1;fill-rule:nonzero;stroke:none"
       id="path542" /><path
       d="m 2424.33,168.512 h -0.98 v 90.5 c 0.04,0 0.09,0 0.13,0 0.28,0 0.57,0 0.85,0 6.96,0.078 13.87,1.136 20.14,3.129 3.59,1.129 6.99,2.57 10.07,4.308 l 0.01,0.012 0.31,0.098 556.65,321.39 524.14,302.699 287.72,166.142 43.29,24.99 0.19,-0.01 204.81,118.24 1.95,1.27 1.19,0.71 c 0,0.01 0.01,0.01 0.01,0.02 h 0.02 c 6.44,4.5 9.48,10.1 9.85,15.7 -0.13,-1.88 -0.17,-12.47 -0.17,-25.8 0,-0.03 0,-0.07 0,-0.11 0,-0.04 0,-0.08 0,-0.12 0.01,-26.28 0.17,-62.99 0.17,-64.45 0,-0.01 0,-0.01 0,-0.01 0,0 0,0 0,-0.01 v 0 c 0,0 0,0 0,-0.01 -0.37,-5.59 -3.41,-11.19 -9.85,-15.69 l -1.23,-0.73 -1.94,-1.34 -204.85,-118.241 -1411.95,-815.148 -0.37,-0.121 c -8.39,-4.739 -19.22,-7.301 -30.16,-7.418 v 0"
       style="fill:#19b19d;fill-opacity:1;fill-rule:nonzero;stroke:none"
       id="path544" /><path
       d="m 1328.17,906.781 v 0 0.367 c 0.62,11.43 5.84,22.622 15.7,30.282 l 0.49,0.371 168.23,97.079 1320.47,762.47 76.03,43.79 0.24,0.13 c 15.93,9.24 33.57,14.35 51.46,15.2 l 0.97,0.12 c 1.57,0.07 3.15,0.1 4.73,0.1 v 0 c -1.58,0 -3.16,-0.03 -4.73,-0.1 v 0 l -0.97,-0.12 c -17.89,-0.85 -35.53,-5.96 -51.46,-15.2 l -0.24,-0.13 -75.79,-43.79 -1320.71,-762.47 -168.23,-97.079 -0.49,-0.371 c -9.86,-7.66 -15.08,-18.852 -15.7,-30.282 v 0 -0.367 m 2743.95,329.439 v 0 l -0.46,0.34 -1001.51,578.19 -45.5,26.39 -2.07,1.1 c -0.15,0.08 -0.3,0.16 -0.45,0.25 v 0 c 0.15,-0.09 0.3,-0.17 0.45,-0.25 l 2.07,-1.1 1047.01,-604.58 0.46,-0.34"
       style="fill:#08917e;fill-opacity:1;fill-rule:nonzero;stroke:none"
       id="path546" /><path
       d="m 4084.68,1217.71 c -0.37,-5.6 -3.41,-11.2 -9.85,-15.7 l -1.23,-0.72 -206.92,-119.46 -855.17,-493.881 -556.65,-321.39 -0.37,-0.118 c -8.39,-4.75 -19.22,-7.3 -30.16,-7.429 -11.8,-0.121 -23.72,2.308 -32.72,7.547 l -17.89,10.339 -798.97,461.403 -209.35,120.789 -16.54,9.488 -0.12,0.121 c -14.24,8.27 -21.05,22.75 -20.57,37.231 v 0.851 0.367 c 5.23,1.454 11.68,2.551 19.11,3.282 l 187.45,18.609 972.44,96.831 h 0.13 l 151.8,15.21 c 33.46,3.28 63.38,15.45 66.67,27 l 30.41,101.58 v 0.12 l 189.89,635.84 14.23,47.32 0.12,0.61 c 0.37,1.09 0.73,2.19 1.34,3.04 20.8,0.85 41.97,-3.89 60.82,-14.35 l 2.07,-1.1 45.5,-26.39 1001.51,-578.19 0.49,-0.36 1.34,-0.86 1.21,-0.72 0.37,-0.37 c 3.64,-2.55 6.32,-5.47 7.78,-8.64 l 0.97,-2.31 0.49,-2.06 0.24,-1.46 v -0.49 l 0.13,-1.58"
       style="fill:#26b6a6;fill-opacity:1;fill-rule:nonzero;stroke:none"
       id="path548" /><path
       d="m 3866.85,1081.77 -0.19,0.01 206.95,119.5 -1.95,-1.27 -204.81,-118.24"
       style="fill:#069c86;fill-opacity:1;fill-rule:nonzero;stroke:none"
       id="path550" /><path
       d="m 4084.65,1218.09 -0.1,1.2 v 0.49 l -0.24,1.46 -0.49,2.06 -0.97,2.31 c -0.06,0.15 -0.13,0.29 -0.21,0.43 1.41,-2.58 2.08,-5.27 2.01,-7.95"
       style="fill:#a9abaa;fill-opacity:1;fill-rule:nonzero;stroke:none"
       id="path552" /><path
       d="m 4076.31,1233.34 c -0.4,0.31 -0.81,0.61 -1.24,0.91 l -0.13,0.12 c 0.48,-0.34 0.93,-0.68 1.37,-1.03"
       style="fill:#a9abaa;fill-opacity:1;fill-rule:nonzero;stroke:none"
       id="path554" /><path
       d="m 4073.93,1235.08 -0.44,0.26 -1.34,0.86 -0.03,0.02 c 0.63,-0.37 1.23,-0.75 1.81,-1.14"
       style="fill:#a9abaa;fill-opacity:1;fill-rule:nonzero;stroke:none"
       id="path556" /><path
       d="m 2890.27,1174.56 0.18,1.65 0.03,0.26 0.24,2.3 1181.37,57.47 c 0.01,-0.01 0.02,-0.02 0.03,-0.02 l 0.03,-0.02 1.34,-0.86 0.44,-0.26 c 0.35,-0.23 0.68,-0.47 1.01,-0.71 l 0.13,-0.12 c 0.43,-0.3 0.84,-0.6 1.24,-0.91 2.82,-2.26 4.94,-4.73 6.33,-7.3 0.08,-0.14 0.15,-0.28 0.21,-0.43 l 0.97,-2.31 0.49,-2.06 0.24,-1.46 v -0.49 l 0.1,-1.2 c -0.01,-0.14 -0.01,-0.28 -0.02,-0.42 v 0 l -1194.36,-43.11"
       style="fill:#0cad96;fill-opacity:1;fill-rule:nonzero;stroke:none"
       id="path558" /><path
       d="m 2420.94,259.051 c -3.24,0.097 -6.46,0.39 -9.59,0.871 -6.44,1.019 -12.56,2.879 -17.85,5.598 -0.64,0.332 -1.27,0.679 -1.89,1.039 8.14,-4.731 18.66,-7.18 29.33,-7.508 m -29.33,7.508 -17.88,10.32 v 0.012 l 17.88,-10.332"
       style="fill:#0cad96;fill-opacity:1;fill-rule:nonzero;stroke:none"
       id="path560" /><path
       d="m 2423.15,259.012 c -3.98,0 -7.95,0.308 -11.8,0.91 3.13,-0.481 6.35,-0.774 9.59,-0.871 0.73,-0.02 1.47,-0.039 2.21,-0.039 m -29.65,6.508 c -0.66,0.339 -1.31,0.691 -1.94,1.05 l -17.83,10.301 17.88,-10.312 v 0 c 0.62,-0.36 1.25,-0.707 1.89,-1.039"
       style="fill:#0a8574;fill-opacity:1;fill-rule:nonzero;stroke:none"
       id="path562" /><path
       d="m 2423.19,259.012 c -0.02,0 -0.03,0 -0.04,0 -0.74,0 -1.48,0.019 -2.21,0.039 -10.67,0.328 -21.19,2.777 -29.33,7.508 v 0 l -17.88,10.332 119.57,671.129 5.53,0.109 -74.47,-689.109 v 0 c -0.39,-0.008 -0.78,-0.008 -1.17,-0.008 m 31.62,7.566 556.63,321.402 0.03,-0.019 -556.66,-321.383"
       style="fill:#0cad96;fill-opacity:1;fill-rule:nonzero;stroke:none"
       id="path564" /><path
       d="m 4084.63,1217.67 c -0.31,-5.57 -3.39,-11.11 -9.83,-15.68 l -1.19,-0.71 -1618.8,-934.702 -0.27,-0.129 c -8.47,-4.789 -19.27,-7.269 -30.18,-7.429 l 90.93,841.49 c 3.77,34.87 83.79,63.54 187.88,67.29 l 1381.46,49.87"
       style="fill:#26b6a6;fill-opacity:1;fill-rule:nonzero;stroke:none"
       id="path566" /><path
       d="m 1328.17,907.148 c 0.62,11.43 5.84,22.622 15.7,30.282 l 0.49,0.371 168.23,97.079 1320.71,762.47 75.79,43.79 0.24,0.13 c 15.93,9.24 33.57,14.35 51.46,15.2 l 0.97,0.12 c -0.61,-0.85 -0.97,-1.95 -1.34,-3.04 l -0.12,-0.61 -14.23,-47.32 -189.89,-635.84 v -0.06 l -53.01,-1.92 c -104.09,-3.75 -184.11,-32.42 -187.88,-67.29 l -8.06,-74.64 h -0.06 L 1534.73,929.039 1347.28,910.43 c -7.43,-0.731 -13.88,-1.828 -19.11,-3.282"
       style="fill:#0b6658;fill-opacity:1;fill-rule:nonzero;stroke:none"
       id="path568" /><path
       d="m 1328.17,905.93 v 1.218 c 5.23,1.454 11.68,2.551 19.11,3.282 l 187.45,18.609 972.44,96.831 h 0.06 l -8.39,-77.651 -5.54,-0.199 -955.29,-34.43 -209.84,-7.66 m 1428.01,263.79 v 0.06 l 189.89,635.84 14.23,47.32 0.12,0.61 c 0.37,1.09 0.73,2.19 1.34,3.04 v 0 l -5.23,-50.24 -65.81,-627.58 h -0.01 l -0.26,-2.56 -0.21,-1.56 -0.01,-0.09 -134.05,-4.84"
       style="fill:#0cad96;fill-opacity:1;fill-rule:nonzero;stroke:none"
       id="path570" /><path
       d="m 2890.45,1176.21 0.26,2.56 -0.23,-2.3 -0.03,-0.26"
       style="fill:#0a8574;fill-opacity:1;fill-rule:nonzero;stroke:none"
       id="path572" /><path
       d="m 2493.3,948.02 v 0 l 5.54,0.199 -0.01,-0.09 -5.53,-0.109"
       style="fill:#0a8574;fill-opacity:1;fill-rule:nonzero;stroke:none"
       id="path574" /><path
       d="m 2498.83,948.129 0.01,0.09 8.39,77.651 8.06,74.64 c 3.77,34.87 83.79,63.54 187.88,67.29 l 53.01,1.92 134.05,4.84 -1.58,-15.36 -14.35,-136.85 c -3.65,-34.92 -83.69,-63.631 -187.94,-67.401 l -93.56,-3.41 h -0.11 l -93.79,-3.398 -0.07,-0.012"
       style="fill:#0cad96;fill-opacity:1;fill-rule:nonzero;stroke:none"
       id="path576" /><path
       d="m 2960.79,1856.47 -0.37,-2.92 -0.12,-0.61 -7.79,-46.83 -103.76,-631.83 -0.24,-1.22 -1.7,-10.58 -19.1,-116.29 c -5.36,-32.85 -78.34,-59.979 -175.54,-65.452 l -87.34,-4.859 h -0.12 l -63.25,-3.527 -3.9,-0.25 -960.52,-53.641 -208.87,-11.68 v 0.367 c 0.62,11.43 5.84,22.622 15.7,30.282 l 0.49,0.371 168.23,97.069 1320.71,762.48 75.79,43.79 0.24,0.13 c 15.93,9.24 33.57,14.35 51.46,15.2"
       style="fill:#26b6a6;fill-opacity:1;fill-rule:nonzero;stroke:none"
       id="path578" /></g></svg>
