<?xml version="1.0" encoding="UTF-8" standalone="no"?>
<!-- Created with Inkscape (http://www.inkscape.org/) -->

<svg
   width="160.69733mm"
   height="142.73036mm"
   viewBox="0 0 160.69732 142.73036"
   version="1.1"
   id="svg5"
   xml:space="preserve"
   xmlns:inkscape="http://www.inkscape.org/namespaces/inkscape"
   xmlns:sodipodi="http://sodipodi.sourceforge.net/DTD/sodipodi-0.dtd"
   xmlns="http://www.w3.org/2000/svg"
   xmlns:svg="http://www.w3.org/2000/svg"><sodipodi:namedview
     id="namedview7"
     pagecolor="#ffffff"
     bordercolor="#000000"
     borderopacity="0.25"
     inkscape:showpageshadow="2"
     inkscape:pageopacity="0.0"
     inkscape:pagecheckerboard="0"
     inkscape:deskcolor="#d1d1d1"
     inkscape:document-units="mm"
     showgrid="false" /><defs
     id="defs2" /><g
     id="g952"
     transform="matrix(0.03527778,0,0,-0.03527778,-1.8483873e-5,142.73036)"><path
       d="m 803.32466,2395.484 c -863.941997,-498.8 -863.921997,-1307.512 0.046,-1806.30799 863.96504,-498.800999 2264.70504,-498.800999 3128.64504,0 863.94,498.79599 863.92,1307.50799 -0.04,1806.30799 -863.97,498.79 -2264.71,498.79 -3128.65104,0"
       style="fill:#f3f2f1;fill-opacity:1;fill-rule:nonzero;stroke:none"
       id="path954" /><path
       d="M 3395.66,1793.8 918.496,363.609 c -44.519,-25.711 -122.281,-22.48 -173.687,7.2 L 42.5273,776.27 C -8.88281,805.949 -14.4648,850.852 30.0547,876.551 L 2507.22,2306.74 c 44.52,25.7 122.28,22.48 173.69,-7.2 l 702.28,-405.46 c 51.41,-29.68 56.99,-74.58 12.47,-100.28"
       style="fill:#dadbd8;fill-opacity:1;fill-rule:nonzero;stroke:none"
       id="path960" /><path
       d="m 2625.77,2216.58 46.88,27.06 c 0,0 249.01,812.36 272.19,859.43 23.19,47.09 -18.73,71.1 -63.57,45.21 L 543.73,1800.44 c -44.843,-25.89 -58.941,-61.49 -98.816,-138.96 -39.879,-77.47 -264.758,-823.91 -264.758,-823.91 -3.32,-17.379 4.711,-34.961 20.024,-43.82 L 732.41,485.488 3177.4,1897.03 2625.77,2216.58"
       style="fill:#ad58b2;fill-opacity:1;fill-rule:nonzero;stroke:none"
       id="path964" /><path
       d="m 730.434,486.641 -202.43,117.238 0.043,0.031 c 0,0 2.644,10.981 6.516,30.25 l 157.968,-91.219 c 6.684,-25.281 20.379,-45.101 37.903,-56.3 m -170.481,537.229 -0.004,0.01 58.367,33.69 v -0.01 l -58.363,-33.69 m -279.199,26.99 c -8.684,10.07 -17.285,20.29 -26.488,29.75 7.035,22.86 14.351,46.56 21.843,70.76 7.332,-11.92 15.442,-24.33 24.387,-37.26 -6.773,-21.66 -13.379,-42.83 -19.742,-63.25 m 97.629,309.83 c -10.805,6.51 -21.422,11.78 -31.645,15.85 44.121,138.38 83.567,256.56 98.176,284.94 30.117,58.51 45.527,93.14 70.586,117.74 l 6.883,-48.29 c -17.067,-25.51 -31.61,-56.2 -48.129,-88.19 -11.274,-21.84 -50.742,-141 -95.871,-282.05"
       style="fill:#d087ca;fill-opacity:1;fill-rule:nonzero;stroke:none"
       id="path966" /><path
       d="M 474.254,1642.74 C 443.934,1584.01 209.789,821.711 209.789,821.711 L 2702.25,2260.73 c 0,0 247.21,774.79 271.94,823.6 24.72,48.81 -18.73,71.1 -63.58,45.21 L 573.07,1781.7 c -44.843,-25.89 -68.496,-80.24 -98.816,-138.96"
       style="fill:#ad58b2;fill-opacity:1;fill-rule:nonzero;stroke:none"
       id="path968" /><path
       d="m 367.469,989.422 c -8.754,2.316 -17.371,4.988 -25.586,8.789 -24.735,11.459 -43.098,31.729 -61.129,52.649 6.363,20.42 12.969,41.59 19.742,63.25 0.496,-0.72 0.996,-1.44 1.496,-2.16 21.477,-30.89 44.488,-72.28 65.477,-122.528 m 192.48,34.458 c -19.613,182.73 -105.215,290.77 -181.566,336.81 45.129,141.05 84.597,260.21 95.871,282.05 16.519,31.99 31.062,62.68 48.129,88.19 l 95.933,-673.36 -58.367,-33.69"
       style="fill:#a048aa;fill-opacity:1;fill-rule:nonzero;stroke:none"
       id="path970" /><path
       d="M 2654.79,2233.26 209.789,821.711 751.254,509.031 3196.24,1920.57 2654.79,2233.26"
       style="fill:#ad58b2;fill-opacity:1;fill-rule:nonzero;stroke:none"
       id="path972" /><path
       d="M 2825.03,4013.51 469.438,2655.98 c -51.653,-29.82 -67.77,-78.09 -58.665,-141.71 L 689.5,557.949 c 9.105,-63.621 59.781,-100.84 111.434,-71.008 L 3135.67,1834.33 c 51.66,29.82 86.15,105.57 77.04,169.18 l -277.66,1948.81 c -9.11,63.62 -58.36,91.01 -110.02,61.19"
       style="fill:#ad58b2;fill-opacity:1;fill-rule:nonzero;stroke:none"
       id="path974" /><path
       d="m 764.492,476.488 c -37.129,0 -68.07,33.102 -74.992,81.461 l -71.184,499.621 -95.933,673.36 -111.61,783.34 c -1.582,11.06 -2.402,21.65 -2.406,31.77 -0.023,48.07 18.399,85.3 61.071,109.94 L 2825.03,4013.51 c 14.18,8.19 28.17,12.06 41.21,12.06 29.92,0 54.78,-20.43 65.14,-56.03 -3.69,-1.56 -7.4,-3.41 -11.13,-5.57 L 564.656,2606.45 C 513,2576.62 496.883,2528.35 505.992,2464.74 L 786.129,498.59 c 0.863,-6.031 2.086,-11.731 3.637,-17.078 -8.598,-3.41 -17.086,-5.024 -25.274,-5.024"
       style="fill:#d087ca;fill-opacity:1;fill-rule:nonzero;stroke:none"
       id="path976" /><path
       d="m 2983.79,3971.98 c -18.52,7.23 -40.73,5.22 -63.5,-7.89 L 585.477,2616.59 c -24.754,-14.29 -45.543,-39.25 -59.575,-68.35 l -75.371,31.94 c 16.571,36.15 45.469,49.36 70.207,63.78 L 2855.4,3991.45 c 23.85,13.64 46.99,15.21 65.96,6.76 l -0.02,0.12 62.45,-26.35"
       style="fill:#33535f;fill-opacity:1;fill-rule:nonzero;stroke:none"
       id="path978" /><path
       d="m 765.25,467.27 -0.02,0.121 c -23.14,9.5 -40.339,33.519 -45.347,68.488 L 443.652,2474.8 c -5.691,39.75 -7.547,75.39 6.891,105.41 l 75.371,-31.95 c -1.988,-4.14 -3.816,-8.4 -5.621,-12.77 -1.367,-3.51 -2.582,-7 -3.66,-10.49 l -0.488,-1.61 c -1.434,-4 -2.567,-8.1 -3.555,-12.2 -1.117,-4.23 -2.067,-8.57 -2.754,-12.78 -0.684,-3.23 -1.086,-6.44 -1.344,-9.65 -1.887,-13.85 -1.883,-27.87 0.039,-41.32 L 786.18,498.691 c 5.058,-35.332 22.578,-59.582 45.992,-68.953 L 765.25,467.27"
       style="fill:#17282f;fill-opacity:1;fill-rule:nonzero;stroke:none"
       id="path980" /><path
       d="M 2920.25,3963.97 564.656,2606.45 C 513,2576.62 496.883,2528.35 505.992,2464.74 L 786.129,498.59 c 9.109,-63.621 58.367,-91.008 110.019,-61.192 L 3230.89,1784.8 c 51.65,29.82 86.14,105.56 77.03,169.18 l -277.65,1948.81 c -9.11,63.61 -58.37,91.01 -110.02,61.18"
       style="fill:#273e47;fill-opacity:1;fill-rule:nonzero;stroke:none"
       id="path982" /><path
       d="M 3087.54,1793.76 1003.55,591.129 C 976.781,575.68 951.254,589.871 946.531,622.84 L 671.625,2551.46 c -4.719,32.97 13.152,72.22 39.922,87.67 L 2795.54,3841.77 c 26.77,15.45 52.3,1.25 57.02,-31.71 l 274.9,-1928.63 c 4.72,-32.96 -13.15,-72.21 -39.92,-87.67"
       style="fill:#17282f;fill-opacity:1;fill-rule:nonzero;stroke:none"
       id="path984" /><path
       d="M 671.625,2551.46 946.535,622.84 c 0.188,-1.32 0.461,-2.551 0.719,-3.809 L 3031.25,1821.66 c 26.77,15.46 44.64,54.71 39.92,87.68 L 2795.54,3841.77 711.547,2639.13 c -26.77,-15.45 -44.641,-54.7 -39.922,-87.67"
       style="fill:#fafaf9;fill-opacity:1;fill-rule:nonzero;stroke:none"
       id="path986" /><path
       d="m 777.922,1357.24 c 2.375,-16.58 -6.617,-36.32 -20.082,-44.1 -13.465,-7.77 -26.305,-0.63 -28.68,15.95 -2.375,16.59 6.617,36.33 20.082,44.1 13.461,7.78 26.305,0.64 28.68,-15.95"
       style="fill:#17282f;fill-opacity:1;fill-rule:nonzero;stroke:none"
       id="path988" /><path
       d="m 686.777,1808.84 v 0 c -10.464,-6.04 -17.457,-21.39 -15.609,-34.28 l 45.551,-317.55 c 1.847,-12.89 11.832,-18.44 22.301,-12.4 10.464,6.04 17.457,21.4 15.609,34.29 l -45.555,317.55 c -1.847,12.89 -11.828,18.44 -22.297,12.39"
       style="fill:#17282f;fill-opacity:1;fill-rule:nonzero;stroke:none"
       id="path990" /><path
       d="m 3201.53,2989.9 c 35.94,-20.75 85.59,-17.76 140.43,13.91 109.67,63.32 198.58,217.32 198.58,343.95 0,63.33 -22.23,107.82 -58.16,128.57 -21.82,12.6 -67.75,39.08 -89.57,51.69 -35.93,20.74 -85.58,17.74 -140.42,-13.92 -109.67,-63.33 -198.58,-217.32 -198.59,-343.96 0,-63.33 22.24,-107.81 58.17,-128.56 21.82,-12.6 67.74,-39.09 89.56,-51.68"
       style="fill:#ad58b2;fill-opacity:1;fill-rule:nonzero;stroke:none"
       id="path1006" /><path
       d="m 3200.5,2990.49 c -10.95,6.32 -27.41,15.82 -43.86,25.31 -16.9,9.75 -33.78,19.5 -44.67,25.78 -35.93,20.75 -58.17,65.23 -58.17,128.56 0.01,126.64 88.92,280.63 198.59,343.96 31.88,18.4 62,27.12 88.7,27.12 19.23,0 36.68,-4.52 51.72,-13.2 21.82,-12.61 67.75,-39.09 89.57,-51.69 31.72,-18.32 52.76,-55.13 57.25,-107.07 -4.5,51.94 -25.53,88.75 -57.26,107.06 -15.04,8.69 -32.5,13.22 -51.72,13.22 -26.7,0 -56.82,-8.72 -88.7,-27.13 -109.67,-63.32 -198.59,-217.32 -198.58,-343.96 v 0 0 c 0,-62.72 21.8,-106.96 57.13,-127.96"
       style="fill:#cc80c6;fill-opacity:1;fill-rule:nonzero;stroke:none"
       id="path1008" /><path
       d="m 3515.7,3222.31 c 10.39,27.6 17.84,55.67 21.74,83.09 -3.9,-27.43 -11.35,-55.48 -21.74,-83.09 m 23.94,146.88 c 0,0.02 0,0.04 0,0.05 0,-0.01 0,-0.03 0,-0.05"
       style="fill:#cc80c6;fill-opacity:1;fill-rule:nonzero;stroke:none"
       id="path1010" /><path
       d="m 3540.54,3347.77 c 0,63.32 -22.23,107.81 -58.17,128.55 -35.93,20.75 -85.58,17.75 -140.42,-13.91 -109.67,-63.32 -198.59,-217.32 -198.58,-343.96 0,-63.32 22.22,-107.81 58.16,-128.56 35.94,-20.75 85.58,-17.75 140.42,13.92 109.68,63.32 198.59,217.32 198.59,343.96"
       style="fill:#ad58b2;fill-opacity:1;fill-rule:nonzero;stroke:none"
       id="path1012" /><path
       d="m 3253.25,2976.68 c -19.22,0 -36.68,4.52 -51.72,13.21 -35.94,20.75 -58.16,65.24 -58.16,128.56 -0.01,126.64 88.91,280.64 198.58,343.96 31.88,18.41 62,27.13 88.7,27.13 19.22,0 36.68,-4.53 51.72,-13.22 35.94,-20.74 58.17,-65.23 58.17,-128.55 0,-126.64 -88.91,-280.64 -198.59,-343.96 -31.88,-18.41 -62,-27.13 -88.7,-27.13"
       style="fill:#de9fd4;fill-opacity:1;fill-rule:nonzero;stroke:none"
       id="path1014" /><path
       d="m 3239.25,3166.11 c 0,-30.86 8.05,-55.83 21.61,-71.95 18.87,-22.6 48.16,-28.11 80.99,-9.04 33.03,19.07 62.31,58.58 81.18,102.81 13.57,31.84 21.63,66.04 21.63,96.9 l -205.41,-118.72"
       style="fill:#273e47;fill-opacity:1;fill-rule:nonzero;stroke:none"
       id="path1016" /><path
       d="m 3260.86,3094.16 c 18.87,-22.6 48.16,-28.11 80.99,-9.04 33.03,19.07 62.31,58.58 81.18,102.81 -21.03,15.13 -49.73,15.33 -81.18,-2.75 -31.25,-18.09 -59.95,-51.31 -80.99,-91.02"
       style="fill:#ad58b2;fill-opacity:1;fill-rule:nonzero;stroke:none"
       id="path1018" /><path
       d="m 3284.61,3278.91 c 0,-15.27 -8.04,-32.29 -17.96,-38.02 -9.92,-5.73 -17.97,2.01 -17.97,17.29 0,15.27 8.05,32.29 17.97,38.02 9.92,5.73 17.96,-2.01 17.96,-17.29"
       style="fill:#273e47;fill-opacity:1;fill-rule:nonzero;stroke:none"
       id="path1020" /><path
       d="m 3434.43,3362.45 c 0,-15.28 -8.04,-32.31 -17.96,-38.03 -9.92,-5.73 -17.96,2.01 -17.96,17.28 0,15.28 8.04,32.3 17.96,38.03 9.92,5.73 17.96,-2.02 17.96,-17.28"
       style="fill:#273e47;fill-opacity:1;fill-rule:nonzero;stroke:none"
       id="path1022" /><path
       d="m 2682.47,2690.21 c 35.93,-20.74 85.58,-17.75 140.42,13.92 109.67,63.32 198.59,217.32 198.58,343.95 0.01,63.33 -22.22,107.81 -58.16,128.56 -21.82,12.6 -67.74,39.09 -89.56,51.69 -35.93,20.75 -85.59,17.74 -140.42,-13.91 -109.68,-63.33 -198.59,-217.33 -198.59,-343.97 0,-63.32 22.23,-107.8 58.17,-128.55 21.82,-12.6 67.74,-39.09 89.56,-51.69"
       style="fill:#ad58b2;fill-opacity:1;fill-rule:nonzero;stroke:none"
       id="path1024" /><path
       d="m 2681.51,2690.77 c -22.18,12.8 -67.1,38.71 -88.6,51.13 -35.94,20.75 -58.17,65.23 -58.17,128.55 0,126.64 88.91,280.64 198.59,343.97 31.88,18.4 62,27.12 88.7,27.12 19.22,0 36.68,-4.52 51.72,-13.21 21.82,-12.6 67.74,-39.09 89.56,-51.69 31.72,-18.31 52.76,-55.12 57.26,-107.06 -4.5,51.94 -25.54,88.75 -57.26,107.06 -15.04,8.69 -32.5,13.21 -51.72,13.21 -26.7,0 -56.82,-8.71 -88.7,-27.12 -109.68,-63.33 -198.59,-217.32 -198.59,-343.96 v 0 0 c 0,-62.76 21.84,-107.02 57.21,-128 m 117.1,1.03 c 0.03,0.02 0.06,0.03 0.09,0.04 -0.03,-0.01 -0.05,-0.02 -0.09,-0.04 m 0.36,0.16 c 0.05,0.02 0.1,0.05 0.15,0.07 -0.05,-0.02 -0.1,-0.05 -0.15,-0.07 m 0.37,0.16 c 0.09,0.04 0.19,0.09 0.29,0.13 -0.1,-0.04 -0.2,-0.09 -0.29,-0.13 m 0.36,0.16 c 0.1,0.05 0.2,0.09 0.3,0.14 -0.1,-0.05 -0.2,-0.1 -0.3,-0.14 m 0.36,0.16 c 3.83,1.71 7.7,3.56 11.59,5.56 -3.89,-2 -7.76,-3.85 -11.59,-5.56 m 11.7,5.61 c 0.04,0.02 0.07,0.04 0.11,0.06 -0.03,-0.02 -0.08,-0.04 -0.11,-0.06 m 208.82,371.45 c 0,0.02 -0.01,0.04 -0.01,0.06 0,-0.02 0.01,-0.04 0.01,-0.06"
       style="fill:#cc80c6;fill-opacity:1;fill-rule:nonzero;stroke:none"
       id="path1026" /><path
       d="m 3021.47,3048.09 c 0,63.32 -22.22,107.8 -58.16,128.55 -35.94,20.75 -85.58,17.75 -140.42,-13.91 -109.68,-63.33 -198.59,-217.32 -198.59,-343.96 0,-63.32 22.23,-107.82 58.17,-128.56 35.93,-20.75 85.58,-17.75 140.42,13.91 109.67,63.33 198.58,217.32 198.58,343.97"
       style="fill:#ad58b2;fill-opacity:1;fill-rule:nonzero;stroke:none"
       id="path1028" /><path
       d="m 2734.19,2677 c -19.22,0 -36.68,4.52 -51.72,13.21 -35.94,20.74 -58.17,65.24 -58.17,128.56 0,126.64 88.91,280.63 198.59,343.96 31.88,18.41 62,27.12 88.7,27.12 19.22,0 36.68,-4.52 51.72,-13.21 35.94,-20.75 58.16,-65.23 58.16,-128.55 0,-126.65 -88.91,-280.64 -198.58,-343.97 -31.88,-18.4 -62,-27.12 -88.7,-27.12"
       style="fill:#de9fd4;fill-opacity:1;fill-rule:nonzero;stroke:none"
       id="path1030" /><path
       d="m 2705.61,2853.65 c 3.8,-20.38 11.42,-38.12 22.94,-51.84 l -0.05,0.05 c 6.92,-8.29 15.27,-15.08 24.78,-19.73 9.49,-4.67 20.1,-7.12 31.04,-7.11 15.5,0 31.48,4.8 47.17,13.92 l -0.04,-0.02 c 19.07,11.04 36.05,27.23 50.92,46.34 14.85,19.14 27.55,41.29 37.53,64.67 v 0 c 9.67,22.7 16.71,46.52 20.33,69.99 1.45,9.46 -5.03,18.3 -14.49,19.75 -9.45,1.46 -18.3,-5.03 -19.75,-14.49 -3.11,-20.23 -9.34,-41.46 -17.96,-61.67 l 0.01,0.01 c -8.89,-20.85 -20.27,-40.57 -33.04,-57.01 -12.75,-16.46 -26.92,-29.57 -40.87,-37.59 l -0.04,-0.02 c -11.5,-6.68 -21.49,-9.24 -29.77,-9.24 -5.89,0.01 -11.01,1.24 -15.8,3.58 -4.79,2.35 -9.28,5.87 -13.42,10.82 l -0.02,0.02 -0.03,0.03 c -6.79,8.05 -12.47,20.15 -15.38,35.87 -1.74,9.4 -10.79,15.61 -20.19,13.86 -9.41,-1.74 -15.61,-10.78 -13.87,-20.19"
       style="fill:#273e47;fill-opacity:1;fill-rule:nonzero;stroke:none"
       id="path1032" /><path
       d="m 2765.54,2979.23 c 0,-15.27 -8.04,-32.29 -17.96,-38.02 -9.92,-5.73 -17.96,2.01 -17.96,17.28 0,15.28 8.04,32.3 17.96,38.03 9.92,5.73 17.96,-2.01 17.96,-17.29"
       style="fill:#273e47;fill-opacity:1;fill-rule:nonzero;stroke:none"
       id="path1034" /><path
       d="m 2915.37,3062.76 c 0,-15.27 -8.04,-32.3 -17.96,-38.02 -9.92,-5.73 -17.97,2.01 -17.97,17.28 0,15.27 8.05,32.3 17.97,38.03 9.92,5.72 17.96,-2.01 17.96,-17.29"
       style="fill:#273e47;fill-opacity:1;fill-rule:nonzero;stroke:none"
       id="path1036" /><path
       d="m 2163.41,2390.53 c 35.93,-20.74 85.58,-17.75 140.42,13.91 109.67,63.33 198.58,217.33 198.58,343.96 0,63.32 -22.22,107.81 -58.16,128.56 -21.82,12.6 -67.74,39.09 -89.56,51.69 -35.94,20.75 -85.59,17.74 -140.42,-13.91 -109.68,-63.33 -198.59,-217.33 -198.59,-343.97 -0.01,-63.32 22.23,-107.8 58.17,-128.55 21.82,-12.6 67.74,-39.09 89.56,-51.69"
       style="fill:#ad58b2;fill-opacity:1;fill-rule:nonzero;stroke:none"
       id="path1038" /><path
       d="m 2162.37,2391.13 c -22.2,12.82 -67.04,38.69 -88.52,51.09 -35.94,20.75 -58.18,65.23 -58.17,128.55 0,126.64 88.91,280.64 198.59,343.97 31.87,18.4 62,27.12 88.69,27.12 19.23,0 36.68,-4.52 51.73,-13.21 21.82,-12.6 67.74,-39.09 89.56,-51.69 30.31,-17.5 50.87,-51.9 56.56,-100.24 -5.69,48.35 -26.25,82.74 -56.56,100.24 -15.05,8.69 -32.5,13.21 -51.73,13.21 -26.7,0 -56.82,-8.72 -88.7,-27.12 -109.67,-63.33 -198.58,-217.33 -198.58,-343.97 v 0 0 c 0,-62.71 21.8,-106.95 57.13,-127.95 m 338.45,385.52 c 0,0.01 0,0.02 0,0.04 0,-0.02 0,-0.03 0,-0.04"
       style="fill:#cc80c6;fill-opacity:1;fill-rule:nonzero;stroke:none"
       id="path1040" /><path
       d="m 2502.41,2748.4 c 0,63.32 -22.23,107.82 -58.16,128.56 -35.94,20.75 -85.59,17.75 -140.43,-13.91 -109.67,-63.33 -198.58,-217.33 -198.58,-343.97 0,-63.32 22.22,-107.81 58.16,-128.55 35.94,-20.75 85.59,-17.75 140.42,13.91 109.68,63.33 198.59,217.32 198.59,343.96"
       style="fill:#ad58b2;fill-opacity:1;fill-rule:nonzero;stroke:none"
       id="path1042" /><path
       d="m 2215.13,2377.32 c -19.23,0 -36.68,4.52 -51.73,13.21 -35.94,20.74 -58.16,65.23 -58.16,128.55 0,126.64 88.91,280.64 198.58,343.97 31.88,18.4 62,27.12 88.7,27.12 19.23,0 36.68,-4.52 51.73,-13.21 35.93,-20.74 58.16,-65.24 58.16,-128.56 0,-126.64 -88.91,-280.63 -198.59,-343.96 -31.88,-18.41 -62,-27.13 -88.69,-27.12"
       style="fill:#de9fd4;fill-opacity:1;fill-rule:nonzero;stroke:none"
       id="path1044" /><path
       d="m 2387.64,2637.92 -185.75,-107.37 c -8.28,-4.79 -11.12,-15.39 -6.33,-23.67 4.79,-8.28 15.38,-11.11 23.66,-6.33 l 185.76,107.38 c 8.28,4.79 11.11,15.38 6.32,23.66 -4.78,8.29 -15.38,11.12 -23.66,6.33"
       style="fill:#273e47;fill-opacity:1;fill-rule:nonzero;stroke:none"
       id="path1046" /><path
       d="m 2246.48,2679.55 c 0,-15.27 -8.04,-32.3 -17.96,-38.02 -9.92,-5.73 -17.96,2.01 -17.96,17.28 0,15.27 8.04,32.3 17.96,38.03 9.92,5.72 17.96,-2.01 17.96,-17.29"
       style="fill:#273e47;fill-opacity:1;fill-rule:nonzero;stroke:none"
       id="path1048" /><path
       d="m 2396.31,2763.08 c 0,-15.27 -8.05,-32.3 -17.97,-38.03 -9.92,-5.72 -17.96,2.01 -17.96,17.29 0,15.27 8.04,32.3 17.96,38.03 9.92,5.72 17.97,-2.02 17.97,-17.29"
       style="fill:#273e47;fill-opacity:1;fill-rule:nonzero;stroke:none"
       id="path1050" /><path
       d="m 1644.34,2090.85 c 35.94,-20.75 85.58,-17.75 140.42,13.91 109.68,63.32 198.59,217.33 198.59,343.96 0,63.32 -22.23,107.81 -58.17,128.56 -21.82,12.6 -67.74,39.09 -89.56,51.69 -35.93,20.75 -85.59,17.74 -140.42,-13.91 -109.68,-63.34 -198.58,-217.33 -198.59,-343.97 0,-63.32 22.24,-107.81 58.17,-128.55 21.82,-12.6 67.74,-39.09 89.56,-51.69"
       style="fill:#ad58b2;fill-opacity:1;fill-rule:nonzero;stroke:none"
       id="path1052" /><path
       d="m 1643.31,2091.45 c -22.21,12.82 -67.05,38.68 -88.53,51.09 -35.93,20.74 -58.17,65.23 -58.17,128.55 0.01,126.64 88.91,280.63 198.59,343.97 31.88,18.4 62,27.12 88.7,27.12 19.22,0 36.68,-4.53 51.72,-13.21 21.82,-12.6 67.74,-39.09 89.56,-51.69 30.32,-17.5 50.88,-51.91 56.57,-100.26 -5.69,48.35 -26.25,82.76 -56.57,100.26 -15.04,8.69 -32.5,13.21 -51.72,13.21 -26.7,0 -56.82,-8.72 -88.7,-27.13 -109.68,-63.32 -198.59,-217.32 -198.59,-343.96 v 0 0 c 0,-62.71 21.81,-106.96 57.14,-127.95 m 159.25,24.49 c 20.8,14.15 40.68,31.46 59.14,51.09 -18.46,-19.63 -38.34,-36.94 -59.14,-51.09 m 59.22,51.18 c 0.01,0 0.02,0.01 0.03,0.02 -0.01,-0.01 -0.02,-0.02 -0.03,-0.02 m 119.98,309.83 c 0,0.02 -0.01,0.03 -0.01,0.05 0,-0.01 0.01,-0.04 0.01,-0.05"
       style="fill:#cc80c6;fill-opacity:1;fill-rule:nonzero;stroke:none"
       id="path1054" /><path
       d="m 1983.35,2448.72 c 0,63.32 -22.23,107.81 -58.17,128.56 -35.94,20.75 -85.58,17.75 -140.42,-13.92 -109.68,-63.32 -198.59,-217.32 -198.59,-343.96 0,-63.32 22.23,-107.81 58.17,-128.56 35.93,-20.74 85.58,-17.74 140.42,13.92 109.68,63.32 198.59,217.32 198.59,343.96"
       style="fill:#ad58b2;fill-opacity:1;fill-rule:nonzero;stroke:none"
       id="path1056" /><path
       d="m 1696.06,2077.63 c -19.22,0.01 -36.68,4.53 -51.72,13.21 -35.94,20.75 -58.17,65.24 -58.17,128.56 0,126.64 88.91,280.64 198.59,343.96 31.88,18.41 62,27.13 88.7,27.13 19.22,0 36.68,-4.52 51.72,-13.21 35.94,-20.75 58.17,-65.24 58.17,-128.56 0,-126.64 -88.91,-280.64 -198.59,-343.96 -31.88,-18.41 -62,-27.13 -88.7,-27.13"
       style="fill:#de9fd4;fill-opacity:1;fill-rule:nonzero;stroke:none"
       id="path1058" /><path
       d="m 1727.42,2379.87 c 0,-15.27 -8.05,-32.3 -17.97,-38.03 -9.92,-5.72 -17.96,2.01 -17.96,17.29 0,15.27 8.04,32.3 17.96,38.03 9.92,5.72 17.97,-2.02 17.97,-17.29"
       style="fill:#273e47;fill-opacity:1;fill-rule:nonzero;stroke:none"
       id="path1060" /><path
       d="m 1877.24,2463.4 c 0,-15.28 -8.04,-32.3 -17.96,-38.03 -9.92,-5.72 -17.96,2.01 -17.96,17.29 0,15.27 8.04,32.3 17.96,38.02 9.92,5.73 17.96,-2.01 17.96,-17.28"
       style="fill:#273e47;fill-opacity:1;fill-rule:nonzero;stroke:none"
       id="path1062" /><path
       d="m 1875.81,2313.58 c -6.61,7.93 -14.54,14.36 -23.52,18.75 -8.98,4.41 -18.98,6.73 -29.37,6.72 -14.7,0 -30.03,-4.55 -45.25,-13.4 l 0.03,0.02 c -18.5,-10.71 -35.18,-26.56 -49.81,-45.38 -14.62,-18.84 -27.17,-40.72 -37.03,-63.82 -2.93,-6.86 0.26,-14.79 7.12,-17.72 6.85,-2.92 14.78,0.27 17.71,7.12 9.01,21.13 20.53,41.12 33.53,57.86 12.99,16.75 27.47,30.2 41.98,38.55 l 0.04,0.03 -0.01,-0.01 c 11.97,6.95 22.62,9.75 31.69,9.75 6.45,-0.01 12.17,-1.37 17.49,-3.96 5.3,-2.6 10.22,-6.49 14.67,-11.81 4.78,-5.72 13.29,-6.49 19.01,-1.71 5.73,4.78 6.49,13.29 1.72,19.01"
       style="fill:#273e47;fill-opacity:1;fill-rule:nonzero;stroke:none"
       id="path1064" /><path
       d="m 1125.28,1791.17 c 35.93,-20.75 85.58,-17.76 140.42,13.91 109.67,63.32 198.58,217.33 198.58,343.96 0.01,63.32 -22.22,107.81 -58.16,128.56 -21.82,12.6 -67.74,39.09 -89.56,51.69 -35.94,20.74 -85.59,17.74 -140.42,-13.92 -109.68,-63.33 -198.585,-217.32 -198.589,-343.96 -0.008,-63.33 22.23,-107.81 58.169,-128.55 21.82,-12.6 67.74,-39.09 89.56,-51.69"
       style="fill:#ad58b2;fill-opacity:1;fill-rule:nonzero;stroke:none"
       id="path1066" /><path
       d="m 1124.25,1791.76 c -22.21,12.82 -67.05,38.69 -88.53,51.1 -35.939,20.74 -58.177,65.22 -58.169,128.55 0.004,126.64 88.909,280.63 198.589,343.96 31.87,18.41 62,27.13 88.69,27.13 19.23,0 36.68,-4.53 51.73,-13.21 21.82,-12.6 67.74,-39.09 89.56,-51.69 30.13,-17.4 50.63,-51.49 56.46,-99.37 -5.84,47.89 -26.33,81.97 -56.46,99.37 -15.05,8.68 -32.5,13.21 -51.73,13.21 -26.7,0 -56.81,-8.72 -88.69,-27.13 -109.68,-63.32 -198.59,-217.32 -198.59,-343.96 v 0 0 c 0,-62.72 21.8,-106.96 57.14,-127.96"
       style="fill:#cc80c6;fill-opacity:1;fill-rule:nonzero;stroke:none"
       id="path1068" /><path
       d="m 1464.28,2149.04 c 0,63.32 -22.22,107.81 -58.16,128.56 -35.94,20.74 -85.59,17.75 -140.42,-13.92 -109.68,-63.32 -198.59,-217.32 -198.59,-343.96 0,-63.32 22.23,-107.81 58.16,-128.56 35.94,-20.74 85.59,-17.74 140.43,13.92 109.67,63.32 198.58,217.32 198.58,343.96"
       style="fill:#ad58b2;fill-opacity:1;fill-rule:nonzero;stroke:none"
       id="path1070" /><path
       d="m 1177,1777.95 c -19.23,0 -36.68,4.53 -51.73,13.21 -35.93,20.75 -58.16,65.24 -58.16,128.56 0,126.64 88.91,280.64 198.59,343.96 31.88,18.41 61.99,27.13 88.69,27.13 19.23,0 36.68,-4.53 51.73,-13.21 35.94,-20.75 58.16,-65.24 58.16,-128.56 0,-126.64 -88.91,-280.64 -198.58,-343.96 -31.88,-18.41 -62,-27.13 -88.7,-27.13"
       style="fill:#de9fd4;fill-opacity:1;fill-rule:nonzero;stroke:none"
       id="path1072" /><path
       d="m 1208.35,2062.46 c 0,-15.27 -8.04,-32.3 -17.96,-38.03 -9.92,-5.72 -17.96,2.02 -17.96,17.29 0,15.27 8.04,32.3 17.96,38.03 9.92,5.72 17.96,-2.02 17.96,-17.29"
       style="fill:#273e47;fill-opacity:1;fill-rule:nonzero;stroke:none"
       id="path1074" /><path
       d="m 1358.18,2145.99 c 0,-15.27 -8.04,-32.3 -17.96,-38.03 -9.93,-5.72 -17.97,2.01 -17.97,17.29 0,15.27 8.04,32.3 17.97,38.02 9.92,5.73 17.96,-2.01 17.96,-17.28"
       style="fill:#273e47;fill-opacity:1;fill-rule:nonzero;stroke:none"
       id="path1076" /><path
       d="m 1367.54,1975.96 c -3.3,17.73 -9.91,33.07 -19.82,44.87 l 0.03,-0.04 c -5.95,7.14 -13.11,12.95 -21.25,16.94 -8.12,3.99 -17.19,6.09 -26.58,6.08 -13.29,0 -27.07,-4.12 -40.68,-12.03 l 0.03,0.02 c -16.54,-9.57 -31.36,-23.68 -44.35,-40.39 -12.98,-16.73 -24.1,-36.12 -32.84,-56.59 l -0.01,-0.01 c -8.46,-19.87 -14.63,-40.73 -17.78,-61.24 -1.14,-7.37 3.92,-14.26 11.29,-15.4 7.37,-1.13 14.26,3.93 15.39,11.29 2.76,18 8.3,36.83 15.94,54.77 v -0.01 c 7.89,18.51 17.98,36.01 29.34,50.63 11.34,14.64 23.97,26.34 36.53,33.57 l 0.03,0.01 c 10.34,6.01 19.45,8.38 27.11,8.38 5.45,-0.01 10.24,-1.16 14.7,-3.33 4.46,-2.19 8.61,-5.46 12.41,-9.99 l 0.01,-0.02 0.02,-0.02 c 6.23,-7.38 11.33,-18.33 13.94,-32.41 1.36,-7.34 8.4,-12.17 15.74,-10.81 7.33,1.36 12.17,8.4 10.8,15.73"
       style="fill:#273e47;fill-opacity:1;fill-rule:nonzero;stroke:none"
       id="path1078" /><path
       d="m 1178.91,2104 34.09,-6.45 c 5.42,-1.03 10.66,2.54 11.68,7.96 1.03,5.43 -2.54,10.66 -7.96,11.69 l -34.09,6.45 c -5.43,1.03 -10.66,-2.54 -11.69,-7.96 -1.02,-5.43 2.54,-10.66 7.97,-11.69"
       style="fill:#273e47;fill-opacity:1;fill-rule:nonzero;stroke:none"
       id="path1080" /><path
       d="m 1343.26,2218.24 -34.09,-45.81 c -3.3,-4.43 -2.38,-10.7 2.05,-14 4.43,-3.29 10.7,-2.37 14,2.06 l 34.08,45.81 c 3.3,4.43 2.38,10.7 -2.05,13.99 -4.43,3.3 -10.7,2.38 -13.99,-2.05"
       style="fill:#273e47;fill-opacity:1;fill-rule:nonzero;stroke:none"
       id="path1082" /><path
       d="m 3507.07,2877.76 c -12.39,7.3 -28.6,6.72 -46.37,-3.54 L 1079.25,1499.29 c -38.98,-22.51 -70.58,-82.89 -70.58,-134.87 0,-28.23 9.34,-48.14 24.11,-56.84 6.96,-4.1 33.76,-19.33 40.48,-23.37 12.42,-7.44 28.72,-6.91 46.59,3.41 l 2381.44,1374.93 c 38.99,22.51 70.59,82.89 70.59,134.87 v 0 c 0,28.1 -9.25,47.95 -23.9,56.71 -7,4.19 -34.09,19.6 -40.91,23.63"
       style="fill:#dadbd8;fill-opacity:1;fill-rule:nonzero;stroke:none"
       id="path1084" /><path
       d="m 1091.91,1279.17 c -6.85,0 -13.13,1.74 -18.65,5.04 -6.72,4.04 -33.52,19.27 -40.48,23.37 -14.77,8.7 -24.11,28.61 -24.11,56.84 0,51.98 31.6,112.36 70.58,134.87 L 3460.7,2874.22 c 9.93,5.74 19.38,8.45 27.94,8.45 6.76,0 12.96,-1.69 18.43,-4.91 6.82,-4.03 33.91,-19.44 40.91,-23.63 14.65,-8.76 23.9,-28.61 23.9,-56.71 v 0 c 0,-51.98 -31.6,-112.36 -70.59,-134.87 L 1119.85,1287.62 c -9.93,-5.73 -19.38,-8.45 -27.94,-8.45"
       style="fill:#c0c1bf;fill-opacity:1;fill-rule:nonzero;stroke:none"
       id="path1086" /><path
       d="M 3501.3,2662.57 1119.85,1287.64 c -38.99,-22.5 -70.59,1.39 -70.59,53.37 0,51.98 31.6,112.36 70.59,134.87 L 3501.3,2850.81 c 38.98,22.5 70.58,-1.39 70.58,-53.37 v 0 c 0,-51.98 -31.6,-112.36 -70.58,-134.87"
       style="fill:#dadbd8;fill-opacity:1;fill-rule:nonzero;stroke:none"
       id="path1088" /><path
       d="M 3489.81,2698.92 1131.36,1337.27 c -18.35,-10.59 -33.22,3.72 -33.22,31.96 0,28.24 14.87,59.72 33.22,70.31 l 2358.45,1361.65 c 18.34,10.59 33.21,-3.72 33.21,-31.96 0,-28.24 -14.87,-59.72 -33.21,-70.31"
       style="fill:#33535f;fill-opacity:1;fill-rule:nonzero;stroke:none"
       id="path1090" /><path
       d="m 1131.36,1439.54 c -18.35,-10.59 -33.22,-42.07 -33.22,-70.31 0,-2.81 0.19,-5.45 0.47,-7.97 l 1.61,0.8 2358.45,1361.65 c 18.34,10.59 33.21,42.07 33.21,70.31 0,2.82 -0.18,5.45 -0.47,7.97 l -1.6,-0.8 -2358.45,-1361.65"
       style="fill:#17282f;fill-opacity:1;fill-rule:nonzero;stroke:none"
       id="path1092" /><path
       d="m 1119.7,1343.78 c -6.69,0 -11.55,10.7 -11.55,25.45 0,24.59 12.92,52.82 28.21,61.64 l 1675.77,968.06 c 2.44,1.41 4.74,2.16 6.66,2.16 6.7,0 11.55,-10.71 11.55,-25.46 0,-24.59 -12.92,-52.82 -28.21,-61.64 L 1126.36,1345.93 c -2.44,-1.41 -4.75,-2.15 -6.66,-2.15"
       style="fill:#ad58b2;fill-opacity:1;fill-rule:nonzero;stroke:none"
       id="path1094" /></g></svg>
